<svg width="59" height="54" viewBox="0 0 59 54" fill="none" xmlns="http://www.w3.org/2000/svg">
<g filter="url(#filter0_d)">
<path d="M54 25.714C54 22.3355 49.7691 19.1337 43.2823 17.1482C44.7793 10.5367 44.1139 5.2766 41.1824 3.59254C40.5067 3.19751 39.7167 3.0104 38.8539 3.0104V5.32858C39.332 5.32858 39.7167 5.42214 40.0389 5.59886C41.4527 6.4097 42.066 9.49715 41.5879 13.4682C41.4735 14.4454 41.2864 15.4745 41.0577 16.5245C39.0202 16.0255 36.7956 15.6408 34.4566 15.3914C33.0532 13.4682 31.5978 11.7218 30.1321 10.1936C33.521 7.04382 36.702 5.31818 38.8643 5.31818V3C36.0055 3 32.2631 5.03751 28.4792 8.57195C24.6953 5.0583 20.9529 3.04158 18.0942 3.04158V5.35976C20.246 5.35976 23.4374 7.07501 26.8263 10.204C25.371 11.7322 23.9156 13.4682 22.533 15.3914C20.1837 15.6408 17.959 16.0255 15.9215 16.5349C15.6824 15.4953 15.5057 14.487 15.381 13.5202C14.8924 9.54912 15.4953 6.46168 16.8987 5.64044C17.2106 5.45332 17.616 5.37016 18.0942 5.37016V3.05198C17.221 3.05198 16.4309 3.23909 15.7448 3.63412C12.8237 5.31818 12.1688 10.5679 13.6761 17.1586C7.21015 19.1545 3 22.3459 3 25.714C3 29.0925 7.23094 32.2943 13.7177 34.2799C12.2207 40.8914 12.8861 46.1514 15.8176 47.8355C16.4933 48.2305 17.2833 48.4177 18.1565 48.4177C21.0153 48.4177 24.7576 46.3801 28.5416 42.8457C32.3255 46.3594 36.0679 48.3761 38.9266 48.3761C39.7998 48.3761 40.5899 48.189 41.276 47.7939C44.1971 46.1099 44.852 40.8602 43.3447 34.2695C49.7898 32.2839 54 29.0821 54 25.714ZM40.4651 18.7803C40.0805 20.1213 39.6023 21.5039 39.0618 22.8865C38.6355 22.0548 38.1885 21.2232 37.7 20.3916C37.2218 19.5599 36.7124 18.7491 36.203 17.959C37.6792 18.1773 39.1033 18.4476 40.4651 18.7803ZM35.704 29.8514C34.8932 31.2548 34.0616 32.5854 33.1987 33.8225C31.6498 33.9576 30.0801 34.0304 28.5 34.0304C26.9303 34.0304 25.3606 33.9576 23.8221 33.8329C22.9592 32.5958 22.1172 31.2756 21.3064 29.8826C20.5163 28.5208 19.799 27.1382 19.1441 25.7452C19.7886 24.3522 20.5163 22.9592 21.296 21.5974C22.1068 20.194 22.9384 18.8634 23.8013 17.6264C25.3502 17.4912 26.9199 17.4185 28.5 17.4185C30.0697 17.4185 31.6394 17.4912 33.1779 17.616C34.0408 18.853 34.8828 20.1733 35.6936 21.5662C36.4837 22.928 37.201 24.3106 37.8559 25.7036C37.201 27.0966 36.4837 28.4896 35.704 29.8514ZM39.0618 28.5C39.6231 29.893 40.1013 31.286 40.4963 32.6374C39.1345 32.97 37.7 33.2507 36.2134 33.469C36.7228 32.6686 37.2322 31.8473 37.7104 31.0053C38.1885 30.1737 38.6355 29.3316 39.0618 28.5ZM28.5208 39.5919C27.554 38.594 26.5872 37.4817 25.6309 36.2654C26.5665 36.307 27.5228 36.3382 28.4896 36.3382C29.4668 36.3382 30.4336 36.3174 31.3795 36.2654C30.4439 37.4817 29.4772 38.594 28.5208 39.5919ZM20.7866 33.469C19.3104 33.2507 17.8863 32.9804 16.5245 32.6478C16.9091 31.3068 17.3873 29.9242 17.9278 28.5416C18.3541 29.3732 18.8011 30.2049 19.2896 31.0365C19.7782 31.8681 20.2772 32.679 20.7866 33.469ZM28.4688 11.8361C29.4356 12.8341 30.4024 13.9464 31.3587 15.1627C30.4232 15.1211 29.4668 15.0899 28.5 15.0899C27.5228 15.0899 26.5561 15.1107 25.6101 15.1627C26.5457 13.9464 27.5124 12.8341 28.4688 11.8361ZM20.7762 17.959C20.2668 18.7595 19.7574 19.5807 19.2792 20.4227C18.8011 21.2544 18.3541 22.086 17.9278 22.9177C17.3665 21.5247 16.8883 20.1317 16.4933 18.7803C17.8551 18.458 19.2896 18.1773 20.7762 17.959ZM11.3683 30.9741C7.68834 29.4044 5.30779 27.3461 5.30779 25.714C5.30779 24.0819 7.68834 22.0132 11.3683 20.4539C12.2623 20.0693 13.2395 19.7263 14.2479 19.404C14.8404 21.4415 15.6201 23.5622 16.5868 25.7348C15.6305 27.8971 14.8612 30.0073 14.279 32.0344C13.2499 31.7122 12.2727 31.3587 11.3683 30.9741ZM16.9611 45.8292C15.5473 45.0183 14.934 41.9309 15.4121 37.9598C15.5265 36.9827 15.7136 35.9535 15.9423 34.9036C17.9798 35.4026 20.2044 35.7872 22.5434 36.0367C23.9468 37.9598 25.4022 39.7063 26.8679 41.2344C23.479 44.3842 20.298 46.1099 18.1358 46.1099C17.668 46.0995 17.2729 46.0059 16.9611 45.8292ZM41.619 37.9079C42.1076 41.8789 41.5047 44.9664 40.1013 45.7876C39.7894 45.9747 39.384 46.0579 38.9058 46.0579C36.754 46.0579 33.5626 44.3426 30.1737 41.2136C31.629 39.6855 33.0844 37.9495 34.467 36.0263C36.8163 35.7768 39.041 35.3922 41.0785 34.8828C41.3176 35.9327 41.5047 36.9411 41.619 37.9079ZM45.6213 30.9741C44.7273 31.3587 43.7501 31.7018 42.7417 32.0241C42.1492 29.9865 41.3695 27.8659 40.4028 25.6932C41.3592 23.531 42.1284 21.4207 42.7106 19.3936C43.7397 19.7159 44.7169 20.0693 45.6317 20.4539C49.3117 22.0236 51.6922 24.0819 51.6922 25.714C51.6818 27.3461 49.3013 29.4148 45.6213 30.9741Z" fill="url(#paint0_linear)"/>
</g>
<g filter="url(#filter1_d)">
<path d="M28.4897 30.4647C31.1135 30.4647 33.2404 28.3378 33.2404 25.714C33.2404 23.0903 31.1135 20.9633 28.4897 20.9633C25.866 20.9633 23.739 23.0903 23.739 25.714C23.739 28.3378 25.866 30.4647 28.4897 30.4647Z" fill="#61DAFB"/>
</g>
<defs>
<filter id="filter0_d" x="0" y="0" width="59" height="53.4177" filterUnits="userSpaceOnUse" color-interpolation-filters="sRGB">
<feFlood flood-opacity="0" result="BackgroundImageFix"/>
<feColorMatrix in="SourceAlpha" type="matrix" values="0 0 0 0 0 0 0 0 0 0 0 0 0 0 0 0 0 0 127 0"/>
<feOffset dx="1" dy="1"/>
<feGaussianBlur stdDeviation="2"/>
<feColorMatrix type="matrix" values="0 0 0 0 0 0 0 0 0 0 0 0 0 0 0 0 0 0 0.25 0"/>
<feBlend mode="normal" in2="BackgroundImageFix" result="effect1_dropShadow"/>
<feBlend mode="normal" in="SourceGraphic" in2="effect1_dropShadow" result="shape"/>
</filter>
<filter id="filter1_d" x="20.739" y="17.9633" width="17.5014" height="17.5014" filterUnits="userSpaceOnUse" color-interpolation-filters="sRGB">
<feFlood flood-opacity="0" result="BackgroundImageFix"/>
<feColorMatrix in="SourceAlpha" type="matrix" values="0 0 0 0 0 0 0 0 0 0 0 0 0 0 0 0 0 0 127 0"/>
<feOffset dx="1" dy="1"/>
<feGaussianBlur stdDeviation="2"/>
<feColorMatrix type="matrix" values="0 0 0 0 0 0 0 0 0 0 0 0 0 0 0 0 0 0 0.25 0"/>
<feBlend mode="normal" in2="BackgroundImageFix" result="effect1_dropShadow"/>
<feBlend mode="normal" in="SourceGraphic" in2="effect1_dropShadow" result="shape"/>
</filter>
<linearGradient id="paint0_linear" x1="3" y1="25.3104" x2="54" y2="25.3104" gradientUnits="userSpaceOnUse">
<stop stop-color="#61DAFB"/>
<stop offset="1" stop-color="#B06AB3"/>
</linearGradient>
</defs>
</svg>
