<svg width="215" height="54" viewBox="0 0 215 54" fill="none" xmlns="http://www.w3.org/2000/svg">
<path d="M64.25 44V32.7969H65.6406V37.9844C65.875 37.5365 66.2214 37.1849 66.6797 36.9297C67.138 36.6745 67.6354 36.5469 68.1719 36.5469C68.724 36.5469 69.2318 36.6484 69.6953 36.8516C70.1589 37.0495 70.5521 37.3255 70.875 37.6797C71.2031 38.0339 71.4583 38.4427 71.6406 38.9062C71.8229 39.3698 71.9141 39.8568 71.9141 40.3672C71.9141 40.8776 71.8229 41.3646 71.6406 41.8281C71.4583 42.2865 71.2031 42.6927 70.875 43.0469C70.5521 43.3958 70.1589 43.6719 69.6953 43.875C69.2318 44.0781 68.724 44.1797 68.1719 44.1797C67.6406 44.1797 67.1432 44.0521 66.6797 43.7969C66.2214 43.5365 65.875 43.1823 65.6406 42.7344V44H64.25ZM65.6406 40.3672C65.6406 40.7214 65.6979 41.0521 65.8125 41.3594C65.9323 41.6667 66.099 41.9375 66.3125 42.1719C66.526 42.401 66.7839 42.5859 67.0859 42.7266C67.388 42.862 67.7266 42.9297 68.1016 42.9297C68.4661 42.9297 68.7969 42.862 69.0938 42.7266C69.3958 42.5859 69.651 42.401 69.8594 42.1719C70.0677 41.9375 70.2292 41.6667 70.3438 41.3594C70.4635 41.0521 70.5234 40.7214 70.5234 40.3672C70.5234 40.013 70.4635 39.6823 70.3438 39.375C70.2292 39.0677 70.0677 38.7969 69.8594 38.5625C69.651 38.3281 69.3958 38.1406 69.0938 38C68.7969 37.8594 68.4661 37.7891 68.1016 37.7891C67.7266 37.7891 67.388 37.8594 67.0859 38C66.7839 38.1406 66.526 38.3281 66.3125 38.5625C66.099 38.7969 65.9323 39.0703 65.8125 39.3828C65.6979 39.6901 65.6406 40.0182 65.6406 40.3672ZM73.6953 44.9453H75.1094C75.151 45.6068 75.3438 46.099 75.6875 46.4219C76.0365 46.75 76.5156 46.9141 77.125 46.9141C77.4323 46.9141 77.7109 46.8776 77.9609 46.8047C78.2109 46.737 78.4245 46.6198 78.6016 46.4531C78.7786 46.2917 78.9141 46.0703 79.0078 45.7891C79.1068 45.513 79.1562 45.1667 79.1562 44.75V42.7031C78.9427 43.151 78.6198 43.5104 78.1875 43.7812C77.7552 44.0469 77.2292 44.1797 76.6094 44.1797C76.0781 44.1797 75.6328 44.099 75.2734 43.9375C74.9141 43.776 74.6224 43.5469 74.3984 43.25C74.1953 42.974 74.0547 42.6615 73.9766 42.3125C73.8984 41.9635 73.8594 41.5182 73.8594 40.9766V36.7344H75.25V40.5469C75.25 40.901 75.2786 41.224 75.3359 41.5156C75.3984 41.8073 75.5 42.0599 75.6406 42.2734C75.7865 42.487 75.9766 42.6536 76.2109 42.7734C76.4453 42.888 76.7448 42.9453 77.1094 42.9453C77.4635 42.9453 77.7656 42.8802 78.0156 42.75C78.2708 42.6146 78.4818 42.4323 78.6484 42.2031C78.8151 41.974 78.9401 41.7109 79.0234 41.4141C79.112 41.112 79.1562 40.7943 79.1562 40.4609V36.7344H80.5469V44.75C80.5469 45.9115 80.2526 46.7578 79.6641 47.2891C79.0807 47.8255 78.224 48.0938 77.0938 48.0938C76.0573 48.0938 75.237 47.8333 74.6328 47.3125C74.0286 46.7917 73.7161 46.0026 73.6953 44.9453ZM87.0469 44V32.7969H90.9844C91.5729 32.7969 92.099 32.8984 92.5625 33.1016C93.0312 33.3047 93.4323 33.5833 93.7656 33.9375C94.1042 34.2865 94.3646 34.6927 94.5469 35.1562C94.7292 35.6146 94.8203 36.099 94.8203 36.6094C94.8203 37.1198 94.7292 37.6068 94.5469 38.0703C94.3646 38.5339 94.1042 38.9427 93.7656 39.2969C93.4323 39.6458 93.0312 39.9219 92.5625 40.125C92.0938 40.3281 91.5677 40.4297 90.9844 40.4297H88.5V44H87.0469ZM88.5 39.1016H90.9844C91.349 39.1016 91.6771 39.0365 91.9688 38.9062C92.2604 38.7708 92.5104 38.5911 92.7188 38.3672C92.9271 38.1432 93.0859 37.8802 93.1953 37.5781C93.3099 37.2708 93.3672 36.9479 93.3672 36.6094C93.3672 36.2812 93.3099 35.9661 93.1953 35.6641C93.0859 35.3568 92.9271 35.0885 92.7188 34.8594C92.5104 34.6302 92.2578 34.4479 91.9609 34.3125C91.6693 34.1771 91.3438 34.1094 90.9844 34.1094H88.5V39.1016ZM96.5781 44V32.7969H97.9688V38.0156C98.1823 37.5677 98.5078 37.2109 98.9453 36.9453C99.3828 36.6797 99.9115 36.5469 100.531 36.5469C101.042 36.5469 101.477 36.6302 101.836 36.7969C102.201 36.9583 102.49 37.1953 102.703 37.5078C102.906 37.7839 103.049 38.0938 103.133 38.4375C103.221 38.776 103.266 39.2005 103.266 39.7109V44H101.875V40.1406C101.875 39.8125 101.841 39.5026 101.773 39.2109C101.711 38.9141 101.607 38.6615 101.461 38.4531C101.32 38.2448 101.133 38.0807 100.898 37.9609C100.664 37.8359 100.375 37.7734 100.031 37.7734C99.6771 37.7734 99.3724 37.8438 99.1172 37.9844C98.862 38.125 98.6484 38.3099 98.4766 38.5391C98.3099 38.7682 98.1823 39.0312 98.0938 39.3281C98.0104 39.625 97.9688 39.9349 97.9688 40.2578V44H96.5781ZM105.203 33.9844C105.203 33.6771 105.31 33.4115 105.523 33.1875C105.737 32.9635 106 32.8516 106.312 32.8516C106.62 32.8516 106.885 32.9635 107.109 33.1875C107.333 33.4115 107.445 33.6771 107.445 33.9844C107.445 34.2917 107.333 34.5521 107.109 34.7656C106.885 34.9792 106.62 35.0859 106.312 35.0859C106.005 35.0859 105.742 34.9792 105.523 34.7656C105.31 34.5521 105.203 34.2917 105.203 33.9844ZM105.625 44V36.7344H107.016V44H105.625ZM109.516 44V32.7969H110.906V44H109.516ZM112.984 33.9844C112.984 33.6771 113.091 33.4115 113.305 33.1875C113.518 32.9635 113.781 32.8516 114.094 32.8516C114.401 32.8516 114.667 32.9635 114.891 33.1875C115.115 33.4115 115.227 33.6771 115.227 33.9844C115.227 34.2917 115.115 34.5521 114.891 34.7656C114.667 34.9792 114.401 35.0859 114.094 35.0859C113.786 35.0859 113.523 34.9792 113.305 34.7656C113.091 34.5521 112.984 34.2917 112.984 33.9844ZM113.406 44V36.7344H114.797V44H113.406ZM117.297 47.9375V36.7344H118.688V37.9844C118.922 37.5365 119.268 37.1849 119.727 36.9297C120.185 36.6745 120.682 36.5469 121.219 36.5469C121.771 36.5469 122.279 36.6484 122.742 36.8516C123.206 37.0495 123.599 37.3255 123.922 37.6797C124.25 38.0339 124.505 38.4427 124.688 38.9062C124.87 39.3698 124.961 39.8568 124.961 40.3672C124.961 40.8776 124.87 41.3646 124.688 41.8281C124.505 42.2865 124.25 42.6927 123.922 43.0469C123.599 43.3958 123.206 43.6719 122.742 43.875C122.279 44.0781 121.771 44.1797 121.219 44.1797C120.688 44.1797 120.19 44.0521 119.727 43.7969C119.268 43.5365 118.922 43.1823 118.688 42.7344V47.9375H117.297ZM118.688 40.3672C118.688 40.7214 118.745 41.0521 118.859 41.3594C118.979 41.6667 119.146 41.9375 119.359 42.1719C119.573 42.401 119.831 42.5859 120.133 42.7266C120.44 42.862 120.779 42.9297 121.148 42.9297C121.513 42.9297 121.844 42.862 122.141 42.7266C122.443 42.5859 122.698 42.401 122.906 42.1719C123.115 41.9375 123.276 41.6667 123.391 41.3594C123.51 41.0521 123.57 40.7214 123.57 40.3672C123.57 40.013 123.51 39.6823 123.391 39.375C123.276 39.0677 123.115 38.7969 122.906 38.5625C122.698 38.3281 122.443 38.1406 122.141 38C121.844 37.8594 121.513 37.7891 121.148 37.7891C120.773 37.7891 120.435 37.8594 120.133 38C119.831 38.1406 119.573 38.3281 119.359 38.5625C119.146 38.7969 118.979 39.0703 118.859 39.3828C118.745 39.6901 118.688 40.0182 118.688 40.3672ZM130.328 38.3984C130.328 37.6432 130.461 36.9141 130.727 36.2109C130.992 35.5026 131.372 34.8776 131.867 34.3359C132.367 33.7943 132.974 33.362 133.688 33.0391C134.401 32.7109 135.206 32.5469 136.102 32.5469C136.997 32.5469 137.802 32.7109 138.516 33.0391C139.234 33.362 139.841 33.7943 140.336 34.3359C140.831 34.8776 141.211 35.5026 141.477 36.2109C141.747 36.9141 141.883 37.6432 141.883 38.3984C141.883 39.1536 141.747 39.8854 141.477 40.5938C141.211 41.2969 140.831 41.9219 140.336 42.4688C139.841 43.0104 139.234 43.4453 138.516 43.7734C137.802 44.0964 136.997 44.2578 136.102 44.2578C135.206 44.2578 134.401 44.0964 133.688 43.7734C132.974 43.4453 132.367 43.0104 131.867 42.4688C131.372 41.9219 130.992 41.2969 130.727 40.5938C130.461 39.8906 130.328 39.1589 130.328 38.3984ZM131.852 38.3984C131.852 38.987 131.948 39.5547 132.141 40.1016C132.339 40.6432 132.622 41.125 132.992 41.5469C133.362 41.9688 133.807 42.3073 134.328 42.5625C134.849 42.8177 135.44 42.9453 136.102 42.9453C136.753 42.9453 137.341 42.8177 137.867 42.5625C138.398 42.3073 138.844 41.9688 139.203 41.5469C139.568 41.125 139.849 40.6432 140.047 40.1016C140.245 39.5547 140.344 38.987 140.344 38.3984C140.344 37.8099 140.245 37.2422 140.047 36.6953C139.849 36.1484 139.568 35.6641 139.203 35.2422C138.844 34.8203 138.398 34.4844 137.867 34.2344C137.341 33.9844 136.753 33.8594 136.102 33.8594C135.44 33.8594 134.849 33.9844 134.328 34.2344C133.807 34.4844 133.362 34.8203 132.992 35.2422C132.622 35.6641 132.339 36.151 132.141 36.7031C131.948 37.25 131.852 37.8151 131.852 38.3984ZM143.766 44V32.7969H145.156V37.9844C145.391 37.5365 145.737 37.1849 146.195 36.9297C146.654 36.6745 147.151 36.5469 147.688 36.5469C148.24 36.5469 148.747 36.6484 149.211 36.8516C149.674 37.0495 150.068 37.3255 150.391 37.6797C150.719 38.0339 150.974 38.4427 151.156 38.9062C151.339 39.3698 151.43 39.8568 151.43 40.3672C151.43 40.8776 151.339 41.3646 151.156 41.8281C150.974 42.2865 150.719 42.6927 150.391 43.0469C150.068 43.3958 149.674 43.6719 149.211 43.875C148.747 44.0781 148.24 44.1797 147.688 44.1797C147.156 44.1797 146.659 44.0521 146.195 43.7969C145.737 43.5365 145.391 43.1823 145.156 42.7344V44H143.766ZM145.156 40.3672C145.156 40.7214 145.214 41.0521 145.328 41.3594C145.448 41.6667 145.615 41.9375 145.828 42.1719C146.042 42.401 146.299 42.5859 146.602 42.7266C146.904 42.862 147.242 42.9297 147.617 42.9297C147.982 42.9297 148.312 42.862 148.609 42.7266C148.911 42.5859 149.167 42.401 149.375 42.1719C149.583 41.9375 149.745 41.6667 149.859 41.3594C149.979 41.0521 150.039 40.7214 150.039 40.3672C150.039 40.013 149.979 39.6823 149.859 39.375C149.745 39.0677 149.583 38.7969 149.375 38.5625C149.167 38.3281 148.911 38.1406 148.609 38C148.312 37.8594 147.982 37.7891 147.617 37.7891C147.242 37.7891 146.904 37.8594 146.602 38C146.299 38.1406 146.042 38.3281 145.828 38.5625C145.615 38.7969 145.448 39.0703 145.328 39.3828C145.214 39.6901 145.156 40.0182 145.156 40.3672ZM152.75 40.3672C152.75 39.8568 152.841 39.3698 153.023 38.9062C153.206 38.4427 153.461 38.0339 153.789 37.6797C154.122 37.3255 154.523 37.0495 154.992 36.8516C155.461 36.6484 155.982 36.5469 156.555 36.5469C157.143 36.5469 157.672 36.6484 158.141 36.8516C158.609 37.0495 159.01 37.3255 159.344 37.6797C159.682 38.0339 159.943 38.4427 160.125 38.9062C160.307 39.3698 160.398 39.8568 160.398 40.3672C160.398 40.8776 160.307 41.3646 160.125 41.8281C159.943 42.2865 159.682 42.6927 159.344 43.0469C159.01 43.3958 158.609 43.6719 158.141 43.875C157.672 44.0781 157.143 44.1797 156.555 44.1797C155.977 44.1797 155.453 44.0781 154.984 43.875C154.521 43.6719 154.122 43.3958 153.789 43.0469C153.461 42.6927 153.206 42.2865 153.023 41.8281C152.841 41.3646 152.75 40.8776 152.75 40.3672ZM154.125 40.3672C154.125 40.7214 154.182 41.0521 154.297 41.3594C154.417 41.6667 154.581 41.9375 154.789 42.1719C154.997 42.401 155.25 42.5859 155.547 42.7266C155.844 42.862 156.18 42.9297 156.555 42.9297C156.93 42.9297 157.268 42.862 157.57 42.7266C157.878 42.5859 158.138 42.401 158.352 42.1719C158.565 41.9375 158.729 41.6667 158.844 41.3594C158.964 41.0521 159.023 40.7214 159.023 40.3672C159.023 40.013 158.964 39.6823 158.844 39.375C158.729 39.0677 158.565 38.7969 158.352 38.5625C158.138 38.3281 157.878 38.1406 157.57 38C157.268 37.8594 156.93 37.7891 156.555 37.7891C156.18 37.7891 155.844 37.8594 155.547 38C155.25 38.1406 154.997 38.3281 154.789 38.5625C154.581 38.7969 154.417 39.0703 154.297 39.3828C154.182 39.6901 154.125 40.0182 154.125 40.3672ZM161.688 41.5547H163.047C163.047 42.1068 163.208 42.4974 163.531 42.7266C163.859 42.9557 164.268 43.0703 164.758 43.0703C165.206 43.0703 165.56 42.9896 165.82 42.8281C166.086 42.6615 166.219 42.3958 166.219 42.0312C166.219 41.8281 166.164 41.6667 166.055 41.5469C165.951 41.4219 165.799 41.3125 165.602 41.2188C165.404 41.1198 165.159 41.0312 164.867 40.9531C164.581 40.8698 164.258 40.7656 163.898 40.6406C163.622 40.5573 163.362 40.4688 163.117 40.375C162.878 40.276 162.669 40.151 162.492 40C162.32 39.849 162.182 39.6667 162.078 39.4531C161.979 39.2396 161.93 38.9688 161.93 38.6406C161.93 38.2969 161.997 37.9948 162.133 37.7344C162.273 37.474 162.466 37.2552 162.711 37.0781C162.956 36.901 163.242 36.7682 163.57 36.6797C163.904 36.5911 164.258 36.5469 164.633 36.5469C165.029 36.5469 165.396 36.6068 165.734 36.7266C166.078 36.8411 166.375 37.0078 166.625 37.2266C166.875 37.4453 167.07 37.7031 167.211 38C167.357 38.2969 167.43 38.6276 167.43 38.9922H166.086C166.086 38.5651 165.961 38.237 165.711 38.0078C165.461 37.7786 165.096 37.6641 164.617 37.6641C164.232 37.6641 163.911 37.75 163.656 37.9219C163.401 38.0938 163.273 38.3438 163.273 38.6719C163.273 38.8542 163.318 39.0052 163.406 39.125C163.495 39.2396 163.63 39.3411 163.812 39.4297C163.995 39.513 164.214 39.5964 164.469 39.6797C164.724 39.7578 165.023 39.849 165.367 39.9531C165.643 40.0365 165.911 40.1276 166.172 40.2266C166.438 40.3203 166.669 40.4427 166.867 40.5938C167.07 40.7396 167.232 40.9245 167.352 41.1484C167.477 41.3724 167.539 41.6562 167.539 42C167.539 42.3646 167.466 42.6823 167.32 42.9531C167.18 43.224 166.982 43.4505 166.727 43.6328C166.471 43.8151 166.169 43.9505 165.82 44.0391C165.477 44.1328 165.102 44.1797 164.695 44.1797C164.289 44.1797 163.904 44.125 163.539 44.0156C163.18 43.9115 162.862 43.75 162.586 43.5312C162.315 43.3125 162.096 43.0391 161.93 42.7109C161.768 42.3776 161.688 41.9922 161.688 41.5547ZM169.109 33.9844C169.109 33.6771 169.216 33.4115 169.43 33.1875C169.643 32.9635 169.906 32.8516 170.219 32.8516C170.526 32.8516 170.792 32.9635 171.016 33.1875C171.24 33.4115 171.352 33.6771 171.352 33.9844C171.352 34.2917 171.24 34.5521 171.016 34.7656C170.792 34.9792 170.526 35.0859 170.219 35.0859C169.911 35.0859 169.648 34.9792 169.43 34.7656C169.216 34.5521 169.109 34.2917 169.109 33.9844ZM169.531 44V36.7344H170.922V44H169.531Z" fill="white"/>
<path d="M64.3379 23V8.99609H70.2168C70.9915 8.99609 71.6914 9.13281 72.3164 9.40625C72.9479 9.67969 73.485 10.0475 73.9277 10.5098C74.377 10.972 74.722 11.5091 74.9629 12.1211C75.2038 12.7331 75.3242 13.3809 75.3242 14.0645C75.3242 15.054 75.0801 15.9525 74.5918 16.7598C74.1035 17.5605 73.4199 18.166 72.541 18.5762L75.3438 23H71.584L69.1035 19.123H67.5801V23H64.3379ZM67.5801 16.4766H69.7969C70.1289 16.4766 70.4349 16.4115 70.7148 16.2812C71.0013 16.1445 71.2389 15.9688 71.4277 15.7539C71.623 15.5326 71.7728 15.2754 71.877 14.9824C71.9876 14.6895 72.043 14.3835 72.043 14.0645C72.043 13.7454 71.9876 13.4395 71.877 13.1465C71.7728 12.847 71.623 12.5898 71.4277 12.375C71.2389 12.1536 71.0046 11.9779 70.7246 11.8477C70.4447 11.7109 70.1354 11.6426 69.7969 11.6426H67.5801V16.4766ZM76.3594 18.1758C76.3594 17.4661 76.4668 16.8053 76.6816 16.1934C76.903 15.5814 77.2285 15.0475 77.6582 14.5918C78.0944 14.1296 78.6283 13.765 79.2598 13.498C79.8978 13.2311 80.6367 13.0977 81.4766 13.0977C82.2383 13.0977 82.9219 13.2181 83.5273 13.459C84.1328 13.6999 84.6504 14.0221 85.0801 14.4258C85.5163 14.8229 85.8516 15.2884 86.0859 15.8223C86.3203 16.3561 86.4375 16.916 86.4375 17.502C86.4375 17.7038 86.4342 17.9186 86.4277 18.1465C86.4212 18.3678 86.3919 18.625 86.3398 18.918H79.3965C79.4095 19.2109 79.4518 19.4876 79.5234 19.748C79.6016 20.0085 79.722 20.2363 79.8848 20.4316C80.054 20.627 80.2721 20.7799 80.5391 20.8906C80.806 21.0013 81.138 21.0566 81.5352 21.0566C82.069 21.0566 82.4727 20.9525 82.7461 20.7441C83.0195 20.5293 83.2083 20.2689 83.3125 19.9629H86.3203C86.2552 20.4186 86.099 20.8451 85.8516 21.2422C85.6042 21.6393 85.2754 21.9876 84.8652 22.2871C84.4616 22.5866 83.9831 22.8242 83.4297 23C82.8763 23.1758 82.2513 23.2637 81.5547 23.2637C80.7148 23.2637 79.9694 23.14 79.3184 22.8926C78.6738 22.6452 78.1302 22.2969 77.6875 21.8477C77.2513 21.3919 76.9193 20.8548 76.6914 20.2363C76.4701 19.6113 76.3594 18.9245 76.3594 18.1758ZM79.3965 17.1602H83.4395C83.4395 16.5352 83.2539 16.0436 82.8828 15.6855C82.5182 15.321 82.043 15.1387 81.457 15.1387C80.8581 15.1387 80.3633 15.3145 79.9727 15.666C79.5885 16.0111 79.3965 16.5091 79.3965 17.1602ZM87.9219 18.1758C87.9219 17.4531 88.0326 16.7826 88.2539 16.1641C88.4818 15.5456 88.8008 15.015 89.2109 14.5723C89.6276 14.123 90.1257 13.7682 90.7051 13.5078C91.2845 13.2474 91.9225 13.1172 92.6191 13.1172C92.9251 13.1172 93.2311 13.1628 93.5371 13.2539C93.8431 13.3385 94.1263 13.4557 94.3867 13.6055C94.6471 13.7487 94.8783 13.9212 95.0801 14.123C95.2819 14.3184 95.4414 14.5234 95.5586 14.7383V13.3613H98.6152V23H95.5586V21.6426C95.4414 21.8704 95.2819 22.082 95.0801 22.2773C94.8783 22.4661 94.6471 22.6322 94.3867 22.7754C94.1263 22.9121 93.8431 23.0228 93.5371 23.1074C93.2311 23.1986 92.9251 23.2441 92.6191 23.2441C91.929 23.2441 91.291 23.1139 90.7051 22.8535C90.1257 22.5931 89.6276 22.2383 89.2109 21.7891C88.8008 21.3398 88.4818 20.806 88.2539 20.1875C88.0326 19.569 87.9219 18.8984 87.9219 18.1758ZM90.959 18.1758C90.959 18.5078 91.0143 18.8268 91.125 19.1328C91.2422 19.4323 91.3984 19.6927 91.5938 19.9141C91.7956 20.1289 92.0365 20.3047 92.3164 20.4414C92.5964 20.5716 92.9089 20.6367 93.2539 20.6367C93.599 20.6367 93.9115 20.5716 94.1914 20.4414C94.4779 20.3047 94.7188 20.1289 94.9141 19.9141C95.1159 19.6927 95.2721 19.4323 95.3828 19.1328C95.5 18.8333 95.5586 18.5143 95.5586 18.1758C95.5586 17.8438 95.5 17.5312 95.3828 17.2383C95.2721 16.9453 95.1159 16.6849 94.9141 16.457C94.7188 16.2292 94.4811 16.0501 94.2012 15.9199C93.9212 15.7897 93.6055 15.7246 93.2539 15.7246C92.9089 15.7246 92.5964 15.7897 92.3164 15.9199C92.0365 16.0501 91.7956 16.2292 91.5938 16.457C91.3984 16.6849 91.2422 16.9453 91.125 17.2383C91.0143 17.5312 90.959 17.8438 90.959 18.1758ZM100.578 18.1758C100.578 17.5117 100.686 16.8737 100.9 16.2617C101.122 15.6497 101.451 15.1094 101.887 14.6406C102.329 14.1719 102.873 13.7975 103.518 13.5176C104.169 13.2376 104.914 13.0977 105.754 13.0977C106.568 13.0977 107.274 13.2116 107.873 13.4395C108.472 13.6673 108.973 13.9701 109.377 14.3477C109.787 14.7188 110.103 15.1484 110.324 15.6367C110.546 16.1185 110.682 16.6198 110.734 17.1406H107.678C107.613 16.7109 107.434 16.3626 107.141 16.0957C106.854 15.8288 106.398 15.6953 105.773 15.6953C105.415 15.6953 105.1 15.7637 104.826 15.9004C104.553 16.0306 104.328 16.2096 104.152 16.4375C103.983 16.6654 103.853 16.929 103.762 17.2285C103.677 17.528 103.635 17.8438 103.635 18.1758C103.635 18.5078 103.677 18.8268 103.762 19.1328C103.853 19.4323 103.986 19.696 104.162 19.9238C104.344 20.1452 104.579 20.3242 104.865 20.4609C105.152 20.5911 105.493 20.6562 105.891 20.6562C106.424 20.6562 106.825 20.5488 107.092 20.334C107.359 20.1126 107.561 19.7936 107.697 19.377H110.754C110.676 19.9238 110.516 20.4349 110.275 20.9102C110.035 21.3854 109.706 21.7956 109.289 22.1406C108.879 22.4857 108.378 22.7591 107.785 22.9609C107.193 23.1628 106.516 23.2637 105.754 23.2637C104.914 23.2637 104.169 23.1237 103.518 22.8438C102.873 22.5638 102.329 22.1895 101.887 21.7207C101.451 21.252 101.122 20.7116 100.9 20.0996C100.686 19.4876 100.578 18.8464 100.578 18.1758ZM111.76 15.6367V13.3613H113.273V10.5H116.32V13.3613H118.518V15.6367H116.32V19.084C116.32 19.4421 116.353 19.7285 116.418 19.9434C116.483 20.1517 116.574 20.3145 116.691 20.4316C116.815 20.5423 116.955 20.6204 117.111 20.666C117.274 20.7051 117.45 20.7246 117.639 20.7246C117.827 20.7246 118.02 20.7214 118.215 20.7148C118.417 20.7018 118.592 20.6823 118.742 20.6562V23C118.514 23.0391 118.228 23.0749 117.883 23.1074C117.544 23.14 117.15 23.1562 116.701 23.1562C116.343 23.1562 115.962 23.1302 115.559 23.0781C115.155 23.026 114.784 22.8893 114.445 22.668C114.107 22.4466 113.827 22.1081 113.605 21.6523C113.384 21.1901 113.273 20.5586 113.273 19.7578V15.6367H111.76ZM125.275 23V8.99609H129.016L132.756 18.7422L136.457 8.99609H140.139V23H136.975V14.3184L133.957 23H131.555L128.439 14.3184V23H125.275ZM142.18 18.1758C142.18 17.4531 142.29 16.7826 142.512 16.1641C142.74 15.5456 143.059 15.015 143.469 14.5723C143.885 14.123 144.383 13.7682 144.963 13.5078C145.542 13.2474 146.18 13.1172 146.877 13.1172C147.183 13.1172 147.489 13.1628 147.795 13.2539C148.101 13.3385 148.384 13.4557 148.645 13.6055C148.905 13.7487 149.136 13.9212 149.338 14.123C149.54 14.3184 149.699 14.5234 149.816 14.7383V13.3613H152.873V23H149.816V21.6426C149.699 21.8704 149.54 22.082 149.338 22.2773C149.136 22.4661 148.905 22.6322 148.645 22.7754C148.384 22.9121 148.101 23.0228 147.795 23.1074C147.489 23.1986 147.183 23.2441 146.877 23.2441C146.187 23.2441 145.549 23.1139 144.963 22.8535C144.383 22.5931 143.885 22.2383 143.469 21.7891C143.059 21.3398 142.74 20.806 142.512 20.1875C142.29 19.569 142.18 18.8984 142.18 18.1758ZM145.217 18.1758C145.217 18.5078 145.272 18.8268 145.383 19.1328C145.5 19.4323 145.656 19.6927 145.852 19.9141C146.053 20.1289 146.294 20.3047 146.574 20.4414C146.854 20.5716 147.167 20.6367 147.512 20.6367C147.857 20.6367 148.169 20.5716 148.449 20.4414C148.736 20.3047 148.977 20.1289 149.172 19.9141C149.374 19.6927 149.53 19.4323 149.641 19.1328C149.758 18.8333 149.816 18.5143 149.816 18.1758C149.816 17.8438 149.758 17.5312 149.641 17.2383C149.53 16.9453 149.374 16.6849 149.172 16.457C148.977 16.2292 148.739 16.0501 148.459 15.9199C148.179 15.7897 147.863 15.7246 147.512 15.7246C147.167 15.7246 146.854 15.7897 146.574 15.9199C146.294 16.0501 146.053 16.2292 145.852 16.457C145.656 16.6849 145.5 16.9453 145.383 17.2383C145.272 17.5312 145.217 17.8438 145.217 18.1758ZM154.836 19.7773H157.834C157.834 20.2852 157.977 20.6497 158.264 20.8711C158.55 21.0924 158.918 21.2031 159.367 21.2031C159.738 21.2031 160.041 21.1348 160.275 20.998C160.516 20.8548 160.637 20.6237 160.637 20.3047C160.637 20.1159 160.585 19.9661 160.48 19.8555C160.383 19.7383 160.23 19.6309 160.021 19.5332C159.813 19.429 159.546 19.3281 159.221 19.2305C158.895 19.1328 158.505 19.0091 158.049 18.8594C157.652 18.7422 157.271 18.6152 156.906 18.4785C156.548 18.3353 156.232 18.1628 155.959 17.9609C155.686 17.7591 155.467 17.5052 155.305 17.1992C155.148 16.8932 155.07 16.5059 155.07 16.0371C155.07 15.0345 155.454 14.2956 156.223 13.8203C156.991 13.3385 158.026 13.0977 159.328 13.0977C160.018 13.0977 160.627 13.1823 161.154 13.3516C161.688 13.5143 162.124 13.7454 162.463 14.0449C162.801 14.3379 163.055 14.6829 163.225 15.0801C163.4 15.4772 163.488 15.9036 163.488 16.3594H160.471C160.471 15.9622 160.367 15.653 160.158 15.4316C159.956 15.2103 159.641 15.0996 159.211 15.0996C158.905 15.0996 158.638 15.1712 158.41 15.3145C158.182 15.4512 158.068 15.666 158.068 15.959C158.068 16.1348 158.12 16.2812 158.225 16.3984C158.335 16.5091 158.495 16.61 158.703 16.7012C158.911 16.7923 159.169 16.8867 159.475 16.9844C159.781 17.0755 160.132 17.1862 160.529 17.3164C160.959 17.4336 161.359 17.5638 161.73 17.707C162.102 17.8503 162.427 18.026 162.707 18.2344C162.993 18.4362 163.218 18.6934 163.381 19.0059C163.55 19.3118 163.635 19.696 163.635 20.1582C163.635 20.7311 163.521 21.2161 163.293 21.6133C163.065 22.0039 162.749 22.3229 162.346 22.5703C161.949 22.8177 161.486 22.9935 160.959 23.0977C160.432 23.2083 159.868 23.2637 159.27 23.2637C157.896 23.2637 156.812 22.9642 156.018 22.3652C155.23 21.7598 154.836 20.8971 154.836 19.7773ZM164.396 15.6367V13.3613H165.91V10.5H168.957V13.3613H171.154V15.6367H168.957V19.084C168.957 19.4421 168.99 19.7285 169.055 19.9434C169.12 20.1517 169.211 20.3145 169.328 20.4316C169.452 20.5423 169.592 20.6204 169.748 20.666C169.911 20.7051 170.087 20.7246 170.275 20.7246C170.464 20.7246 170.656 20.7214 170.852 20.7148C171.053 20.7018 171.229 20.6823 171.379 20.6562V23C171.151 23.0391 170.865 23.0749 170.52 23.1074C170.181 23.14 169.787 23.1562 169.338 23.1562C168.98 23.1562 168.599 23.1302 168.195 23.0781C167.792 23.026 167.421 22.8893 167.082 22.668C166.743 22.4466 166.464 22.1081 166.242 21.6523C166.021 21.1901 165.91 20.5586 165.91 19.7578V15.6367H164.396ZM172.141 18.1758C172.141 17.4661 172.248 16.8053 172.463 16.1934C172.684 15.5814 173.01 15.0475 173.439 14.5918C173.876 14.1296 174.41 13.765 175.041 13.498C175.679 13.2311 176.418 13.0977 177.258 13.0977C178.02 13.0977 178.703 13.2181 179.309 13.459C179.914 13.6999 180.432 14.0221 180.861 14.4258C181.298 14.8229 181.633 15.2884 181.867 15.8223C182.102 16.3561 182.219 16.916 182.219 17.502C182.219 17.7038 182.215 17.9186 182.209 18.1465C182.202 18.3678 182.173 18.625 182.121 18.918H175.178C175.191 19.2109 175.233 19.4876 175.305 19.748C175.383 20.0085 175.503 20.2363 175.666 20.4316C175.835 20.627 176.053 20.7799 176.32 20.8906C176.587 21.0013 176.919 21.0566 177.316 21.0566C177.85 21.0566 178.254 20.9525 178.527 20.7441C178.801 20.5293 178.99 20.2689 179.094 19.9629H182.102C182.036 20.4186 181.88 20.8451 181.633 21.2422C181.385 21.6393 181.057 21.9876 180.646 22.2871C180.243 22.5866 179.764 22.8242 179.211 23C178.658 23.1758 178.033 23.2637 177.336 23.2637C176.496 23.2637 175.751 23.14 175.1 22.8926C174.455 22.6452 173.911 22.2969 173.469 21.8477C173.033 21.3919 172.701 20.8548 172.473 20.2363C172.251 19.6113 172.141 18.9245 172.141 18.1758ZM175.178 17.1602H179.221C179.221 16.5352 179.035 16.0436 178.664 15.6855C178.299 15.321 177.824 15.1387 177.238 15.1387C176.639 15.1387 176.145 15.3145 175.754 15.666C175.37 16.0111 175.178 16.5091 175.178 17.1602ZM184.299 23V13.3613H187.355V14.9238C187.583 14.4681 187.961 14.0677 188.488 13.7227C189.016 13.3711 189.621 13.1953 190.305 13.1953C190.663 13.1953 190.969 13.2507 191.223 13.3613V16.1445C191.008 16.0924 190.826 16.0566 190.676 16.0371C190.533 16.0111 190.354 15.998 190.139 15.998C189.299 15.998 188.625 16.2454 188.117 16.7402C187.609 17.235 187.355 18.0684 187.355 19.2402V23H184.299ZM192.521 23.7422H195.578C195.604 24.2891 195.793 24.7057 196.145 24.9922C196.503 25.2786 196.936 25.4219 197.443 25.4219C198.029 25.4219 198.488 25.2786 198.82 24.9922C199.152 24.7057 199.318 24.1882 199.318 23.4395V21.457C199.051 21.9779 198.654 22.3783 198.127 22.6582C197.6 22.9382 196.971 23.0781 196.242 23.0781C195.604 23.0781 195.048 22.974 194.572 22.7656C194.097 22.5508 193.726 22.2676 193.459 21.916C193.153 21.5449 192.951 21.1315 192.854 20.6758C192.762 20.2135 192.717 19.6341 192.717 18.9375V13.3613H195.764V18.3027C195.764 18.9928 195.884 19.556 196.125 19.9922C196.372 20.4219 196.818 20.6367 197.463 20.6367C198.101 20.6367 198.57 20.4186 198.869 19.9824C199.169 19.5397 199.318 18.944 199.318 18.1953V13.3613H202.375V23.2441C202.375 24.0059 202.255 24.6634 202.014 25.2168C201.779 25.7767 201.454 26.2324 201.037 26.584C200.607 26.9421 200.103 27.2025 199.523 27.3652C198.951 27.5345 198.244 27.6191 197.404 27.6191C196.617 27.6191 195.933 27.5378 195.354 27.375C194.774 27.2188 194.27 26.9681 193.84 26.623C193.456 26.304 193.14 25.9069 192.893 25.4316C192.645 24.9564 192.521 24.3932 192.521 23.7422Z" fill="#61DAFB"/>
<g filter="url(#filter0_d)">
<path d="M54 25.714C54 22.3355 49.7691 19.1337 43.2823 17.1482C44.7793 10.5367 44.1139 5.2766 41.1824 3.59254C40.5067 3.19751 39.7167 3.0104 38.8538 3.0104V5.32858C39.332 5.32858 39.7167 5.42214 40.0389 5.59886C41.4527 6.4097 42.066 9.49715 41.5879 13.4682C41.4735 14.4454 41.2864 15.4745 41.0577 16.5245C39.0202 16.0255 36.7956 15.6408 34.4566 15.3914C33.0532 13.4682 31.5978 11.7218 30.1321 10.1936C33.521 7.04382 36.702 5.31818 38.8642 5.31818V3C36.0055 3 32.2631 5.03751 28.4792 8.57195C24.6953 5.0583 20.9529 3.04158 18.0942 3.04158V5.35976C20.246 5.35976 23.4374 7.07501 26.8263 10.204C25.371 11.7322 23.9156 13.4682 22.533 15.3914C20.1837 15.6408 17.959 16.0255 15.9215 16.5349C15.6824 15.4953 15.5057 14.487 15.381 13.5202C14.8924 9.54912 15.4953 6.46168 16.8987 5.64044C17.2106 5.45332 17.616 5.37016 18.0942 5.37016V3.05198C17.221 3.05198 16.4309 3.23909 15.7448 3.63412C12.8237 5.31818 12.1688 10.5679 13.6761 17.1586C7.21015 19.1545 3 22.3459 3 25.714C3 29.0925 7.23094 32.2943 13.7177 34.2799C12.2207 40.8914 12.8861 46.1514 15.8176 47.8355C16.4933 48.2305 17.2833 48.4177 18.1565 48.4177C21.0153 48.4177 24.7576 46.3801 28.5416 42.8457C32.3255 46.3594 36.0679 48.3761 38.9266 48.3761C39.7998 48.3761 40.5899 48.189 41.276 47.7939C44.1971 46.1099 44.852 40.8602 43.3447 34.2695C49.7898 32.2839 54 29.0821 54 25.714ZM40.4651 18.7803C40.0805 20.1213 39.6023 21.5039 39.0618 22.8865C38.6355 22.0548 38.1885 21.2232 37.7 20.3916C37.2218 19.5599 36.7124 18.7491 36.203 17.959C37.6792 18.1773 39.1033 18.4476 40.4651 18.7803ZM35.704 29.8514C34.8932 31.2548 34.0616 32.5854 33.1987 33.8225C31.6498 33.9576 30.0801 34.0304 28.5 34.0304C26.9303 34.0304 25.3606 33.9576 23.8221 33.8329C22.9592 32.5958 22.1172 31.2756 21.3064 29.8826C20.5163 28.5208 19.799 27.1382 19.1441 25.7452C19.7886 24.3522 20.5163 22.9592 21.296 21.5974C22.1068 20.194 22.9384 18.8634 23.8013 17.6264C25.3502 17.4912 26.9199 17.4185 28.5 17.4185C30.0697 17.4185 31.6394 17.4912 33.1779 17.616C34.0408 18.853 34.8828 20.1733 35.6936 21.5662C36.4837 22.928 37.201 24.3106 37.8559 25.7036C37.201 27.0966 36.4837 28.4896 35.704 29.8514ZM39.0618 28.5C39.6231 29.893 40.1013 31.286 40.4963 32.6374C39.1345 32.97 37.7 33.2507 36.2134 33.469C36.7228 32.6686 37.2322 31.8473 37.7104 31.0053C38.1885 30.1737 38.6355 29.3316 39.0618 28.5ZM28.5208 39.5919C27.554 38.594 26.5872 37.4817 25.6309 36.2654C26.5664 36.307 27.5228 36.3382 28.4896 36.3382C29.4668 36.3382 30.4336 36.3174 31.3795 36.2654C30.4439 37.4817 29.4772 38.594 28.5208 39.5919ZM20.7866 33.469C19.3104 33.2507 17.8863 32.9804 16.5245 32.6478C16.9091 31.3068 17.3873 29.9242 17.9278 28.5416C18.3541 29.3732 18.8011 30.2049 19.2896 31.0365C19.7782 31.8681 20.2772 32.679 20.7866 33.469ZM28.4688 11.8361C29.4356 12.8341 30.4024 13.9464 31.3587 15.1627C30.4232 15.1211 29.4668 15.0899 28.5 15.0899C27.5228 15.0899 26.5561 15.1107 25.6101 15.1627C26.5457 13.9464 27.5124 12.8341 28.4688 11.8361ZM20.7762 17.959C20.2668 18.7595 19.7574 19.5807 19.2792 20.4227C18.8011 21.2544 18.3541 22.086 17.9278 22.9177C17.3665 21.5247 16.8883 20.1317 16.4933 18.7803C17.8551 18.458 19.2896 18.1773 20.7762 17.959ZM11.3683 30.9741C7.68834 29.4044 5.30779 27.3461 5.30779 25.714C5.30779 24.0819 7.68834 22.0132 11.3683 20.4539C12.2623 20.0693 13.2395 19.7263 14.2479 19.404C14.8404 21.4415 15.6201 23.5622 16.5868 25.7348C15.6305 27.8971 14.8612 30.0073 14.279 32.0344C13.2499 31.7122 12.2727 31.3587 11.3683 30.9741ZM16.9611 45.8292C15.5473 45.0183 14.934 41.9309 15.4121 37.9598C15.5265 36.9827 15.7136 35.9535 15.9423 34.9036C17.9798 35.4026 20.2044 35.7872 22.5434 36.0367C23.9468 37.9598 25.4022 39.7063 26.8679 41.2344C23.479 44.3842 20.298 46.1099 18.1358 46.1099C17.668 46.0995 17.2729 46.0059 16.9611 45.8292ZM41.619 37.9079C42.1076 41.8789 41.5047 44.9664 40.1013 45.7876C39.7894 45.9747 39.384 46.0579 38.9058 46.0579C36.754 46.0579 33.5626 44.3426 30.1737 41.2136C31.629 39.6855 33.0844 37.9495 34.467 36.0263C36.8163 35.7768 39.041 35.3922 41.0785 34.8828C41.3176 35.9327 41.5047 36.9411 41.619 37.9079ZM45.6213 30.9741C44.7273 31.3587 43.7501 31.7018 42.7417 32.0241C42.1492 29.9865 41.3695 27.8659 40.4028 25.6932C41.3592 23.531 42.1284 21.4207 42.7106 19.3936C43.7397 19.7159 44.7169 20.0693 45.6317 20.4539C49.3117 22.0236 51.6922 24.0819 51.6922 25.714C51.6818 27.3461 49.3013 29.4148 45.6213 30.9741Z" fill="url(#paint0_linear)"/>
</g>
<g filter="url(#filter1_d)">
<path d="M28.4897 30.4647C31.1135 30.4647 33.2404 28.3378 33.2404 25.714C33.2404 23.0903 31.1135 20.9633 28.4897 20.9633C25.866 20.9633 23.739 23.0903 23.739 25.714C23.739 28.3378 25.866 30.4647 28.4897 30.4647Z" fill="#61DAFB"/>
</g>
<defs>
<filter id="filter0_d" x="0" y="0" width="59" height="53.4177" filterUnits="userSpaceOnUse" color-interpolation-filters="sRGB">
<feFlood flood-opacity="0" result="BackgroundImageFix"/>
<feColorMatrix in="SourceAlpha" type="matrix" values="0 0 0 0 0 0 0 0 0 0 0 0 0 0 0 0 0 0 127 0"/>
<feOffset dx="1" dy="1"/>
<feGaussianBlur stdDeviation="2"/>
<feColorMatrix type="matrix" values="0 0 0 0 0 0 0 0 0 0 0 0 0 0 0 0 0 0 0.25 0"/>
<feBlend mode="normal" in2="BackgroundImageFix" result="effect1_dropShadow"/>
<feBlend mode="normal" in="SourceGraphic" in2="effect1_dropShadow" result="shape"/>
</filter>
<filter id="filter1_d" x="20.739" y="17.9633" width="17.5014" height="17.5014" filterUnits="userSpaceOnUse" color-interpolation-filters="sRGB">
<feFlood flood-opacity="0" result="BackgroundImageFix"/>
<feColorMatrix in="SourceAlpha" type="matrix" values="0 0 0 0 0 0 0 0 0 0 0 0 0 0 0 0 0 0 127 0"/>
<feOffset dx="1" dy="1"/>
<feGaussianBlur stdDeviation="2"/>
<feColorMatrix type="matrix" values="0 0 0 0 0 0 0 0 0 0 0 0 0 0 0 0 0 0 0.25 0"/>
<feBlend mode="normal" in2="BackgroundImageFix" result="effect1_dropShadow"/>
<feBlend mode="normal" in="SourceGraphic" in2="effect1_dropShadow" result="shape"/>
</filter>
<linearGradient id="paint0_linear" x1="3" y1="25.3104" x2="54" y2="25.3104" gradientUnits="userSpaceOnUse">
<stop stop-color="#61DAFB"/>
<stop offset="1" stop-color="#B06AB3"/>
</linearGradient>
</defs>
</svg>
