<svg width="215" height="54" viewBox="0 0 215 54" fill="none" xmlns="http://www.w3.org/2000/svg">
<path d="M64.3379 33V18.9961H70.2168C70.9915 18.9961 71.6914 19.1328 72.3164 19.4062C72.9479 19.6797 73.485 20.0475 73.9277 20.5098C74.377 20.972 74.722 21.5091 74.9629 22.1211C75.2038 22.7331 75.3242 23.3809 75.3242 24.0645C75.3242 25.054 75.0801 25.9525 74.5918 26.7598C74.1035 27.5605 73.4199 28.166 72.541 28.5762L75.3438 33H71.584L69.1035 29.123H67.5801V33H64.3379ZM67.5801 26.4766H69.7969C70.1289 26.4766 70.4349 26.4115 70.7148 26.2812C71.0013 26.1445 71.2389 25.9688 71.4277 25.7539C71.623 25.5326 71.7728 25.2754 71.877 24.9824C71.9876 24.6895 72.043 24.3835 72.043 24.0645C72.043 23.7454 71.9876 23.4395 71.877 23.1465C71.7728 22.847 71.623 22.5898 71.4277 22.375C71.2389 22.1536 71.0046 21.9779 70.7246 21.8477C70.4447 21.7109 70.1354 21.6426 69.7969 21.6426H67.5801V26.4766ZM76.3594 28.1758C76.3594 27.4661 76.4668 26.8053 76.6816 26.1934C76.903 25.5814 77.2285 25.0475 77.6582 24.5918C78.0944 24.1296 78.6283 23.765 79.2598 23.498C79.8978 23.2311 80.6367 23.0977 81.4766 23.0977C82.2383 23.0977 82.9219 23.2181 83.5273 23.459C84.1328 23.6999 84.6504 24.0221 85.0801 24.4258C85.5163 24.8229 85.8516 25.2884 86.0859 25.8223C86.3203 26.3561 86.4375 26.916 86.4375 27.502C86.4375 27.7038 86.4342 27.9186 86.4277 28.1465C86.4212 28.3678 86.3919 28.625 86.3398 28.918H79.3965C79.4095 29.2109 79.4518 29.4876 79.5234 29.748C79.6016 30.0085 79.722 30.2363 79.8848 30.4316C80.054 30.627 80.2721 30.7799 80.5391 30.8906C80.806 31.0013 81.138 31.0566 81.5352 31.0566C82.069 31.0566 82.4727 30.9525 82.7461 30.7441C83.0195 30.5293 83.2083 30.2689 83.3125 29.9629H86.3203C86.2552 30.4186 86.099 30.8451 85.8516 31.2422C85.6042 31.6393 85.2754 31.9876 84.8652 32.2871C84.4616 32.5866 83.9831 32.8242 83.4297 33C82.8763 33.1758 82.2513 33.2637 81.5547 33.2637C80.7148 33.2637 79.9694 33.14 79.3184 32.8926C78.6738 32.6452 78.1302 32.2969 77.6875 31.8477C77.2513 31.3919 76.9193 30.8548 76.6914 30.2363C76.4701 29.6113 76.3594 28.9245 76.3594 28.1758ZM79.3965 27.1602H83.4395C83.4395 26.5352 83.2539 26.0436 82.8828 25.6855C82.5182 25.321 82.043 25.1387 81.457 25.1387C80.8581 25.1387 80.3633 25.3145 79.9727 25.666C79.5885 26.0111 79.3965 26.5091 79.3965 27.1602ZM87.9219 28.1758C87.9219 27.4531 88.0326 26.7826 88.2539 26.1641C88.4818 25.5456 88.8008 25.015 89.2109 24.5723C89.6276 24.123 90.1257 23.7682 90.7051 23.5078C91.2845 23.2474 91.9225 23.1172 92.6191 23.1172C92.9251 23.1172 93.2311 23.1628 93.5371 23.2539C93.8431 23.3385 94.1263 23.4557 94.3867 23.6055C94.6471 23.7487 94.8783 23.9212 95.0801 24.123C95.2819 24.3184 95.4414 24.5234 95.5586 24.7383V23.3613H98.6152V33H95.5586V31.6426C95.4414 31.8704 95.2819 32.082 95.0801 32.2773C94.8783 32.4661 94.6471 32.6322 94.3867 32.7754C94.1263 32.9121 93.8431 33.0228 93.5371 33.1074C93.2311 33.1986 92.9251 33.2441 92.6191 33.2441C91.929 33.2441 91.291 33.1139 90.7051 32.8535C90.1257 32.5931 89.6276 32.2383 89.2109 31.7891C88.8008 31.3398 88.4818 30.806 88.2539 30.1875C88.0326 29.569 87.9219 28.8984 87.9219 28.1758ZM90.959 28.1758C90.959 28.5078 91.0143 28.8268 91.125 29.1328C91.2422 29.4323 91.3984 29.6927 91.5938 29.9141C91.7956 30.1289 92.0365 30.3047 92.3164 30.4414C92.5964 30.5716 92.9089 30.6367 93.2539 30.6367C93.599 30.6367 93.9115 30.5716 94.1914 30.4414C94.4779 30.3047 94.7188 30.1289 94.9141 29.9141C95.1159 29.6927 95.2721 29.4323 95.3828 29.1328C95.5 28.8333 95.5586 28.5143 95.5586 28.1758C95.5586 27.8438 95.5 27.5312 95.3828 27.2383C95.2721 26.9453 95.1159 26.6849 94.9141 26.457C94.7188 26.2292 94.4811 26.0501 94.2012 25.9199C93.9212 25.7897 93.6055 25.7246 93.2539 25.7246C92.9089 25.7246 92.5964 25.7897 92.3164 25.9199C92.0365 26.0501 91.7956 26.2292 91.5938 26.457C91.3984 26.6849 91.2422 26.9453 91.125 27.2383C91.0143 27.5312 90.959 27.8438 90.959 28.1758ZM100.578 28.1758C100.578 27.5117 100.686 26.8737 100.9 26.2617C101.122 25.6497 101.451 25.1094 101.887 24.6406C102.329 24.1719 102.873 23.7975 103.518 23.5176C104.169 23.2376 104.914 23.0977 105.754 23.0977C106.568 23.0977 107.274 23.2116 107.873 23.4395C108.472 23.6673 108.973 23.9701 109.377 24.3477C109.787 24.7188 110.103 25.1484 110.324 25.6367C110.546 26.1185 110.682 26.6198 110.734 27.1406H107.678C107.613 26.7109 107.434 26.3626 107.141 26.0957C106.854 25.8288 106.398 25.6953 105.773 25.6953C105.415 25.6953 105.1 25.7637 104.826 25.9004C104.553 26.0306 104.328 26.2096 104.152 26.4375C103.983 26.6654 103.853 26.929 103.762 27.2285C103.677 27.528 103.635 27.8438 103.635 28.1758C103.635 28.5078 103.677 28.8268 103.762 29.1328C103.853 29.4323 103.986 29.696 104.162 29.9238C104.344 30.1452 104.579 30.3242 104.865 30.4609C105.152 30.5911 105.493 30.6562 105.891 30.6562C106.424 30.6562 106.825 30.5488 107.092 30.334C107.359 30.1126 107.561 29.7936 107.697 29.377H110.754C110.676 29.9238 110.516 30.4349 110.275 30.9102C110.035 31.3854 109.706 31.7956 109.289 32.1406C108.879 32.4857 108.378 32.7591 107.785 32.9609C107.193 33.1628 106.516 33.2637 105.754 33.2637C104.914 33.2637 104.169 33.1237 103.518 32.8438C102.873 32.5638 102.329 32.1895 101.887 31.7207C101.451 31.252 101.122 30.7116 100.9 30.0996C100.686 29.4876 100.578 28.8464 100.578 28.1758ZM111.76 25.6367V23.3613H113.273V20.5H116.32V23.3613H118.518V25.6367H116.32V29.084C116.32 29.4421 116.353 29.7285 116.418 29.9434C116.483 30.1517 116.574 30.3145 116.691 30.4316C116.815 30.5423 116.955 30.6204 117.111 30.666C117.274 30.7051 117.45 30.7246 117.639 30.7246C117.827 30.7246 118.02 30.7214 118.215 30.7148C118.417 30.7018 118.592 30.6823 118.742 30.6562V33C118.514 33.0391 118.228 33.0749 117.883 33.1074C117.544 33.14 117.15 33.1562 116.701 33.1562C116.343 33.1562 115.962 33.1302 115.559 33.0781C115.155 33.026 114.784 32.8893 114.445 32.668C114.107 32.4466 113.827 32.1081 113.605 31.6523C113.384 31.1901 113.273 30.5586 113.273 29.7578V25.6367H111.76ZM125.275 33V18.9961H129.016L132.756 28.7422L136.457 18.9961H140.139V33H136.975V24.3184L133.957 33H131.555L128.439 24.3184V33H125.275ZM142.18 28.1758C142.18 27.4531 142.29 26.7826 142.512 26.1641C142.74 25.5456 143.059 25.015 143.469 24.5723C143.885 24.123 144.383 23.7682 144.963 23.5078C145.542 23.2474 146.18 23.1172 146.877 23.1172C147.183 23.1172 147.489 23.1628 147.795 23.2539C148.101 23.3385 148.384 23.4557 148.645 23.6055C148.905 23.7487 149.136 23.9212 149.338 24.123C149.54 24.3184 149.699 24.5234 149.816 24.7383V23.3613H152.873V33H149.816V31.6426C149.699 31.8704 149.54 32.082 149.338 32.2773C149.136 32.4661 148.905 32.6322 148.645 32.7754C148.384 32.9121 148.101 33.0228 147.795 33.1074C147.489 33.1986 147.183 33.2441 146.877 33.2441C146.187 33.2441 145.549 33.1139 144.963 32.8535C144.383 32.5931 143.885 32.2383 143.469 31.7891C143.059 31.3398 142.74 30.806 142.512 30.1875C142.29 29.569 142.18 28.8984 142.18 28.1758ZM145.217 28.1758C145.217 28.5078 145.272 28.8268 145.383 29.1328C145.5 29.4323 145.656 29.6927 145.852 29.9141C146.053 30.1289 146.294 30.3047 146.574 30.4414C146.854 30.5716 147.167 30.6367 147.512 30.6367C147.857 30.6367 148.169 30.5716 148.449 30.4414C148.736 30.3047 148.977 30.1289 149.172 29.9141C149.374 29.6927 149.53 29.4323 149.641 29.1328C149.758 28.8333 149.816 28.5143 149.816 28.1758C149.816 27.8438 149.758 27.5312 149.641 27.2383C149.53 26.9453 149.374 26.6849 149.172 26.457C148.977 26.2292 148.739 26.0501 148.459 25.9199C148.179 25.7897 147.863 25.7246 147.512 25.7246C147.167 25.7246 146.854 25.7897 146.574 25.9199C146.294 26.0501 146.053 26.2292 145.852 26.457C145.656 26.6849 145.5 26.9453 145.383 27.2383C145.272 27.5312 145.217 27.8438 145.217 28.1758ZM154.836 29.7773H157.834C157.834 30.2852 157.977 30.6497 158.264 30.8711C158.55 31.0924 158.918 31.2031 159.367 31.2031C159.738 31.2031 160.041 31.1348 160.275 30.998C160.516 30.8548 160.637 30.6237 160.637 30.3047C160.637 30.1159 160.585 29.9661 160.48 29.8555C160.383 29.7383 160.23 29.6309 160.021 29.5332C159.813 29.429 159.546 29.3281 159.221 29.2305C158.895 29.1328 158.505 29.0091 158.049 28.8594C157.652 28.7422 157.271 28.6152 156.906 28.4785C156.548 28.3353 156.232 28.1628 155.959 27.9609C155.686 27.7591 155.467 27.5052 155.305 27.1992C155.148 26.8932 155.07 26.5059 155.07 26.0371C155.07 25.0345 155.454 24.2956 156.223 23.8203C156.991 23.3385 158.026 23.0977 159.328 23.0977C160.018 23.0977 160.627 23.1823 161.154 23.3516C161.688 23.5143 162.124 23.7454 162.463 24.0449C162.801 24.3379 163.055 24.6829 163.225 25.0801C163.4 25.4772 163.488 25.9036 163.488 26.3594H160.471C160.471 25.9622 160.367 25.653 160.158 25.4316C159.956 25.2103 159.641 25.0996 159.211 25.0996C158.905 25.0996 158.638 25.1712 158.41 25.3145C158.182 25.4512 158.068 25.666 158.068 25.959C158.068 26.1348 158.12 26.2812 158.225 26.3984C158.335 26.5091 158.495 26.61 158.703 26.7012C158.911 26.7923 159.169 26.8867 159.475 26.9844C159.781 27.0755 160.132 27.1862 160.529 27.3164C160.959 27.4336 161.359 27.5638 161.73 27.707C162.102 27.8503 162.427 28.026 162.707 28.2344C162.993 28.4362 163.218 28.6934 163.381 29.0059C163.55 29.3118 163.635 29.696 163.635 30.1582C163.635 30.7311 163.521 31.2161 163.293 31.6133C163.065 32.0039 162.749 32.3229 162.346 32.5703C161.949 32.8177 161.486 32.9935 160.959 33.0977C160.432 33.2083 159.868 33.2637 159.27 33.2637C157.896 33.2637 156.812 32.9642 156.018 32.3652C155.23 31.7598 154.836 30.8971 154.836 29.7773ZM164.396 25.6367V23.3613H165.91V20.5H168.957V23.3613H171.154V25.6367H168.957V29.084C168.957 29.4421 168.99 29.7285 169.055 29.9434C169.12 30.1517 169.211 30.3145 169.328 30.4316C169.452 30.5423 169.592 30.6204 169.748 30.666C169.911 30.7051 170.087 30.7246 170.275 30.7246C170.464 30.7246 170.656 30.7214 170.852 30.7148C171.053 30.7018 171.229 30.6823 171.379 30.6562V33C171.151 33.0391 170.865 33.0749 170.52 33.1074C170.181 33.14 169.787 33.1562 169.338 33.1562C168.98 33.1562 168.599 33.1302 168.195 33.0781C167.792 33.026 167.421 32.8893 167.082 32.668C166.743 32.4466 166.464 32.1081 166.242 31.6523C166.021 31.1901 165.91 30.5586 165.91 29.7578V25.6367H164.396ZM172.141 28.1758C172.141 27.4661 172.248 26.8053 172.463 26.1934C172.684 25.5814 173.01 25.0475 173.439 24.5918C173.876 24.1296 174.41 23.765 175.041 23.498C175.679 23.2311 176.418 23.0977 177.258 23.0977C178.02 23.0977 178.703 23.2181 179.309 23.459C179.914 23.6999 180.432 24.0221 180.861 24.4258C181.298 24.8229 181.633 25.2884 181.867 25.8223C182.102 26.3561 182.219 26.916 182.219 27.502C182.219 27.7038 182.215 27.9186 182.209 28.1465C182.202 28.3678 182.173 28.625 182.121 28.918H175.178C175.191 29.2109 175.233 29.4876 175.305 29.748C175.383 30.0085 175.503 30.2363 175.666 30.4316C175.835 30.627 176.053 30.7799 176.32 30.8906C176.587 31.0013 176.919 31.0566 177.316 31.0566C177.85 31.0566 178.254 30.9525 178.527 30.7441C178.801 30.5293 178.99 30.2689 179.094 29.9629H182.102C182.036 30.4186 181.88 30.8451 181.633 31.2422C181.385 31.6393 181.057 31.9876 180.646 32.2871C180.243 32.5866 179.764 32.8242 179.211 33C178.658 33.1758 178.033 33.2637 177.336 33.2637C176.496 33.2637 175.751 33.14 175.1 32.8926C174.455 32.6452 173.911 32.2969 173.469 31.8477C173.033 31.3919 172.701 30.8548 172.473 30.2363C172.251 29.6113 172.141 28.9245 172.141 28.1758ZM175.178 27.1602H179.221C179.221 26.5352 179.035 26.0436 178.664 25.6855C178.299 25.321 177.824 25.1387 177.238 25.1387C176.639 25.1387 176.145 25.3145 175.754 25.666C175.37 26.0111 175.178 26.5091 175.178 27.1602ZM184.299 33V23.3613H187.355V24.9238C187.583 24.4681 187.961 24.0677 188.488 23.7227C189.016 23.3711 189.621 23.1953 190.305 23.1953C190.663 23.1953 190.969 23.2507 191.223 23.3613V26.1445C191.008 26.0924 190.826 26.0566 190.676 26.0371C190.533 26.0111 190.354 25.998 190.139 25.998C189.299 25.998 188.625 26.2454 188.117 26.7402C187.609 27.235 187.355 28.0684 187.355 29.2402V33H184.299ZM192.521 33.7422H195.578C195.604 34.2891 195.793 34.7057 196.145 34.9922C196.503 35.2786 196.936 35.4219 197.443 35.4219C198.029 35.4219 198.488 35.2786 198.82 34.9922C199.152 34.7057 199.318 34.1882 199.318 33.4395V31.457C199.051 31.9779 198.654 32.3783 198.127 32.6582C197.6 32.9382 196.971 33.0781 196.242 33.0781C195.604 33.0781 195.048 32.974 194.572 32.7656C194.097 32.5508 193.726 32.2676 193.459 31.916C193.153 31.5449 192.951 31.1315 192.854 30.6758C192.762 30.2135 192.717 29.6341 192.717 28.9375V23.3613H195.764V28.3027C195.764 28.9928 195.884 29.556 196.125 29.9922C196.372 30.4219 196.818 30.6367 197.463 30.6367C198.101 30.6367 198.57 30.4186 198.869 29.9824C199.169 29.5397 199.318 28.944 199.318 28.1953V23.3613H202.375V33.2441C202.375 34.0059 202.255 34.6634 202.014 35.2168C201.779 35.7767 201.454 36.2324 201.037 36.584C200.607 36.9421 200.103 37.2025 199.523 37.3652C198.951 37.5345 198.244 37.6191 197.404 37.6191C196.617 37.6191 195.933 37.5378 195.354 37.375C194.774 37.2188 194.27 36.9681 193.84 36.623C193.456 36.304 193.14 35.9069 192.893 35.4316C192.645 34.9564 192.521 34.3932 192.521 33.7422Z" fill="#61DAFB"/>
<g filter="url(#filter0_d)">
<path d="M54 25.714C54 22.3355 49.7691 19.1337 43.2823 17.1482C44.7793 10.5367 44.1139 5.2766 41.1824 3.59254C40.5067 3.19751 39.7167 3.0104 38.8539 3.0104V5.32858C39.332 5.32858 39.7167 5.42214 40.0389 5.59886C41.4527 6.4097 42.066 9.49715 41.5879 13.4682C41.4735 14.4454 41.2864 15.4745 41.0577 16.5245C39.0202 16.0255 36.7956 15.6408 34.4566 15.3914C33.0532 13.4682 31.5978 11.7218 30.1321 10.1936C33.521 7.04382 36.702 5.31818 38.8643 5.31818V3C36.0055 3 32.2631 5.03751 28.4792 8.57195C24.6953 5.0583 20.9529 3.04158 18.0942 3.04158V5.35976C20.246 5.35976 23.4374 7.07501 26.8263 10.204C25.371 11.7322 23.9156 13.4682 22.533 15.3914C20.1837 15.6408 17.959 16.0255 15.9215 16.5349C15.6824 15.4953 15.5057 14.487 15.381 13.5202C14.8924 9.54912 15.4953 6.46168 16.8987 5.64044C17.2106 5.45332 17.616 5.37016 18.0942 5.37016V3.05198C17.221 3.05198 16.4309 3.23909 15.7448 3.63412C12.8237 5.31818 12.1688 10.5679 13.6761 17.1586C7.21015 19.1545 3 22.3459 3 25.714C3 29.0925 7.23094 32.2943 13.7177 34.2799C12.2207 40.8914 12.8861 46.1514 15.8176 47.8355C16.4933 48.2305 17.2833 48.4177 18.1565 48.4177C21.0153 48.4177 24.7576 46.3801 28.5416 42.8457C32.3255 46.3594 36.0679 48.3761 38.9266 48.3761C39.7998 48.3761 40.5899 48.189 41.276 47.7939C44.1971 46.1099 44.852 40.8602 43.3447 34.2695C49.7898 32.2839 54 29.0821 54 25.714ZM40.4651 18.7803C40.0805 20.1213 39.6023 21.5039 39.0618 22.8865C38.6355 22.0548 38.1885 21.2232 37.7 20.3916C37.2218 19.5599 36.7124 18.7491 36.203 17.959C37.6792 18.1773 39.1033 18.4476 40.4651 18.7803ZM35.704 29.8514C34.8932 31.2548 34.0616 32.5854 33.1987 33.8225C31.6498 33.9576 30.0801 34.0304 28.5 34.0304C26.9303 34.0304 25.3606 33.9576 23.8221 33.8329C22.9592 32.5958 22.1172 31.2756 21.3064 29.8826C20.5163 28.5208 19.799 27.1382 19.1441 25.7452C19.7886 24.3522 20.5163 22.9592 21.296 21.5974C22.1068 20.194 22.9384 18.8634 23.8013 17.6264C25.3502 17.4912 26.9199 17.4185 28.5 17.4185C30.0697 17.4185 31.6394 17.4912 33.1779 17.616C34.0408 18.853 34.8828 20.1733 35.6936 21.5662C36.4837 22.928 37.201 24.3106 37.8559 25.7036C37.201 27.0966 36.4837 28.4896 35.704 29.8514ZM39.0618 28.5C39.6231 29.893 40.1013 31.286 40.4963 32.6374C39.1345 32.97 37.7 33.2507 36.2134 33.469C36.7228 32.6686 37.2322 31.8473 37.7104 31.0053C38.1885 30.1737 38.6355 29.3316 39.0618 28.5ZM28.5208 39.5919C27.554 38.594 26.5872 37.4817 25.6309 36.2654C26.5665 36.307 27.5228 36.3382 28.4896 36.3382C29.4668 36.3382 30.4336 36.3174 31.3795 36.2654C30.4439 37.4817 29.4772 38.594 28.5208 39.5919ZM20.7866 33.469C19.3104 33.2507 17.8863 32.9804 16.5245 32.6478C16.9091 31.3068 17.3873 29.9242 17.9278 28.5416C18.3541 29.3732 18.8011 30.2049 19.2896 31.0365C19.7782 31.8681 20.2772 32.679 20.7866 33.469ZM28.4688 11.8361C29.4356 12.8341 30.4024 13.9464 31.3587 15.1627C30.4232 15.1211 29.4668 15.0899 28.5 15.0899C27.5228 15.0899 26.5561 15.1107 25.6101 15.1627C26.5457 13.9464 27.5124 12.8341 28.4688 11.8361ZM20.7762 17.959C20.2668 18.7595 19.7574 19.5807 19.2792 20.4227C18.8011 21.2544 18.3541 22.086 17.9278 22.9177C17.3665 21.5247 16.8883 20.1317 16.4933 18.7803C17.8551 18.458 19.2896 18.1773 20.7762 17.959ZM11.3683 30.9741C7.68834 29.4044 5.30779 27.3461 5.30779 25.714C5.30779 24.0819 7.68834 22.0132 11.3683 20.4539C12.2623 20.0693 13.2395 19.7263 14.2479 19.404C14.8404 21.4415 15.6201 23.5622 16.5868 25.7348C15.6305 27.8971 14.8612 30.0073 14.279 32.0344C13.2499 31.7122 12.2727 31.3587 11.3683 30.9741ZM16.9611 45.8292C15.5473 45.0183 14.934 41.9309 15.4121 37.9598C15.5265 36.9827 15.7136 35.9535 15.9423 34.9036C17.9798 35.4026 20.2044 35.7872 22.5434 36.0367C23.9468 37.9598 25.4022 39.7063 26.8679 41.2344C23.479 44.3842 20.298 46.1099 18.1358 46.1099C17.668 46.0995 17.2729 46.0059 16.9611 45.8292ZM41.619 37.9079C42.1076 41.8789 41.5047 44.9664 40.1013 45.7876C39.7894 45.9747 39.384 46.0579 38.9058 46.0579C36.754 46.0579 33.5626 44.3426 30.1737 41.2136C31.629 39.6855 33.0844 37.9495 34.467 36.0263C36.8163 35.7768 39.041 35.3922 41.0785 34.8828C41.3176 35.9327 41.5047 36.9411 41.619 37.9079ZM45.6213 30.9741C44.7273 31.3587 43.7501 31.7018 42.7417 32.0241C42.1492 29.9865 41.3695 27.8659 40.4028 25.6932C41.3592 23.531 42.1284 21.4207 42.7106 19.3936C43.7397 19.7159 44.7169 20.0693 45.6317 20.4539C49.3117 22.0236 51.6922 24.0819 51.6922 25.714C51.6818 27.3461 49.3013 29.4148 45.6213 30.9741Z" fill="url(#paint0_linear)"/>
</g>
<g filter="url(#filter1_d)">
<path d="M28.4897 30.4647C31.1135 30.4647 33.2404 28.3378 33.2404 25.714C33.2404 23.0903 31.1135 20.9633 28.4897 20.9633C25.866 20.9633 23.739 23.0903 23.739 25.714C23.739 28.3378 25.866 30.4647 28.4897 30.4647Z" fill="#61DAFB"/>
</g>
<defs>
<filter id="filter0_d" x="0" y="0" width="59" height="53.4177" filterUnits="userSpaceOnUse" color-interpolation-filters="sRGB">
<feFlood flood-opacity="0" result="BackgroundImageFix"/>
<feColorMatrix in="SourceAlpha" type="matrix" values="0 0 0 0 0 0 0 0 0 0 0 0 0 0 0 0 0 0 127 0"/>
<feOffset dx="1" dy="1"/>
<feGaussianBlur stdDeviation="2"/>
<feColorMatrix type="matrix" values="0 0 0 0 0 0 0 0 0 0 0 0 0 0 0 0 0 0 0.25 0"/>
<feBlend mode="normal" in2="BackgroundImageFix" result="effect1_dropShadow"/>
<feBlend mode="normal" in="SourceGraphic" in2="effect1_dropShadow" result="shape"/>
</filter>
<filter id="filter1_d" x="20.739" y="17.9633" width="17.5014" height="17.5014" filterUnits="userSpaceOnUse" color-interpolation-filters="sRGB">
<feFlood flood-opacity="0" result="BackgroundImageFix"/>
<feColorMatrix in="SourceAlpha" type="matrix" values="0 0 0 0 0 0 0 0 0 0 0 0 0 0 0 0 0 0 127 0"/>
<feOffset dx="1" dy="1"/>
<feGaussianBlur stdDeviation="2"/>
<feColorMatrix type="matrix" values="0 0 0 0 0 0 0 0 0 0 0 0 0 0 0 0 0 0 0.25 0"/>
<feBlend mode="normal" in2="BackgroundImageFix" result="effect1_dropShadow"/>
<feBlend mode="normal" in="SourceGraphic" in2="effect1_dropShadow" result="shape"/>
</filter>
<linearGradient id="paint0_linear" x1="3" y1="25.3104" x2="54" y2="25.3104" gradientUnits="userSpaceOnUse">
<stop stop-color="#61DAFB"/>
<stop offset="1" stop-color="#B06AB3"/>
</linearGradient>
</defs>
</svg>
