<svg width="234" height="70" viewBox="0 0 234 70" fill="none" xmlns="http://www.w3.org/2000/svg">
<path d="M83.3379 30V15.9961H89.2168C89.9915 15.9961 90.6914 16.1328 91.3164 16.4062C91.9479 16.6797 92.485 17.0475 92.9277 17.5098C93.377 17.972 93.722 18.5091 93.9629 19.1211C94.2038 19.7331 94.3242 20.3809 94.3242 21.0645C94.3242 22.054 94.0801 22.9525 93.5918 23.7598C93.1035 24.5605 92.4199 25.166 91.541 25.5762L94.3438 30H90.584L88.1035 26.123H86.5801V30H83.3379ZM86.5801 23.4766H88.7969C89.1289 23.4766 89.4349 23.4115 89.7148 23.2812C90.0013 23.1445 90.2389 22.9688 90.4277 22.7539C90.623 22.5326 90.7728 22.2754 90.877 21.9824C90.9876 21.6895 91.043 21.3835 91.043 21.0645C91.043 20.7454 90.9876 20.4395 90.877 20.1465C90.7728 19.847 90.623 19.5898 90.4277 19.375C90.2389 19.1536 90.0046 18.9779 89.7246 18.8477C89.4447 18.7109 89.1354 18.6426 88.7969 18.6426H86.5801V23.4766ZM95.3594 25.1758C95.3594 24.4661 95.4668 23.8053 95.6816 23.1934C95.903 22.5814 96.2285 22.0475 96.6582 21.5918C97.0944 21.1296 97.6283 20.765 98.2598 20.498C98.8978 20.2311 99.6367 20.0977 100.477 20.0977C101.238 20.0977 101.922 20.2181 102.527 20.459C103.133 20.6999 103.65 21.0221 104.08 21.4258C104.516 21.8229 104.852 22.2884 105.086 22.8223C105.32 23.3561 105.438 23.916 105.438 24.502C105.438 24.7038 105.434 24.9186 105.428 25.1465C105.421 25.3678 105.392 25.625 105.34 25.918H98.3965C98.4095 26.2109 98.4518 26.4876 98.5234 26.748C98.6016 27.0085 98.722 27.2363 98.8848 27.4316C99.054 27.627 99.2721 27.7799 99.5391 27.8906C99.806 28.0013 100.138 28.0566 100.535 28.0566C101.069 28.0566 101.473 27.9525 101.746 27.7441C102.02 27.5293 102.208 27.2689 102.312 26.9629H105.32C105.255 27.4186 105.099 27.8451 104.852 28.2422C104.604 28.6393 104.275 28.9876 103.865 29.2871C103.462 29.5866 102.983 29.8242 102.43 30C101.876 30.1758 101.251 30.2637 100.555 30.2637C99.7148 30.2637 98.9694 30.14 98.3184 29.8926C97.6738 29.6452 97.1302 29.2969 96.6875 28.8477C96.2513 28.3919 95.9193 27.8548 95.6914 27.2363C95.4701 26.6113 95.3594 25.9245 95.3594 25.1758ZM98.3965 24.1602H102.439C102.439 23.5352 102.254 23.0436 101.883 22.6855C101.518 22.321 101.043 22.1387 100.457 22.1387C99.8581 22.1387 99.3633 22.3145 98.9727 22.666C98.5885 23.0111 98.3965 23.5091 98.3965 24.1602ZM106.922 25.1758C106.922 24.4531 107.033 23.7826 107.254 23.1641C107.482 22.5456 107.801 22.015 108.211 21.5723C108.628 21.123 109.126 20.7682 109.705 20.5078C110.285 20.2474 110.923 20.1172 111.619 20.1172C111.925 20.1172 112.231 20.1628 112.537 20.2539C112.843 20.3385 113.126 20.4557 113.387 20.6055C113.647 20.7487 113.878 20.9212 114.08 21.123C114.282 21.3184 114.441 21.5234 114.559 21.7383V20.3613H117.615V30H114.559V28.6426C114.441 28.8704 114.282 29.082 114.08 29.2773C113.878 29.4661 113.647 29.6322 113.387 29.7754C113.126 29.9121 112.843 30.0228 112.537 30.1074C112.231 30.1986 111.925 30.2441 111.619 30.2441C110.929 30.2441 110.291 30.1139 109.705 29.8535C109.126 29.5931 108.628 29.2383 108.211 28.7891C107.801 28.3398 107.482 27.806 107.254 27.1875C107.033 26.569 106.922 25.8984 106.922 25.1758ZM109.959 25.1758C109.959 25.5078 110.014 25.8268 110.125 26.1328C110.242 26.4323 110.398 26.6927 110.594 26.9141C110.796 27.1289 111.036 27.3047 111.316 27.4414C111.596 27.5716 111.909 27.6367 112.254 27.6367C112.599 27.6367 112.911 27.5716 113.191 27.4414C113.478 27.3047 113.719 27.1289 113.914 26.9141C114.116 26.6927 114.272 26.4323 114.383 26.1328C114.5 25.8333 114.559 25.5143 114.559 25.1758C114.559 24.8438 114.5 24.5312 114.383 24.2383C114.272 23.9453 114.116 23.6849 113.914 23.457C113.719 23.2292 113.481 23.0501 113.201 22.9199C112.921 22.7897 112.605 22.7246 112.254 22.7246C111.909 22.7246 111.596 22.7897 111.316 22.9199C111.036 23.0501 110.796 23.2292 110.594 23.457C110.398 23.6849 110.242 23.9453 110.125 24.2383C110.014 24.5312 109.959 24.8438 109.959 25.1758ZM119.578 25.1758C119.578 24.5117 119.686 23.8737 119.9 23.2617C120.122 22.6497 120.451 22.1094 120.887 21.6406C121.329 21.1719 121.873 20.7975 122.518 20.5176C123.169 20.2376 123.914 20.0977 124.754 20.0977C125.568 20.0977 126.274 20.2116 126.873 20.4395C127.472 20.6673 127.973 20.9701 128.377 21.3477C128.787 21.7188 129.103 22.1484 129.324 22.6367C129.546 23.1185 129.682 23.6198 129.734 24.1406H126.678C126.613 23.7109 126.434 23.3626 126.141 23.0957C125.854 22.8288 125.398 22.6953 124.773 22.6953C124.415 22.6953 124.1 22.7637 123.826 22.9004C123.553 23.0306 123.328 23.2096 123.152 23.4375C122.983 23.6654 122.853 23.929 122.762 24.2285C122.677 24.528 122.635 24.8438 122.635 25.1758C122.635 25.5078 122.677 25.8268 122.762 26.1328C122.853 26.4323 122.986 26.696 123.162 26.9238C123.344 27.1452 123.579 27.3242 123.865 27.4609C124.152 27.5911 124.493 27.6562 124.891 27.6562C125.424 27.6562 125.825 27.5488 126.092 27.334C126.359 27.1126 126.561 26.7936 126.697 26.377H129.754C129.676 26.9238 129.516 27.4349 129.275 27.9102C129.035 28.3854 128.706 28.7956 128.289 29.1406C127.879 29.4857 127.378 29.7591 126.785 29.9609C126.193 30.1628 125.516 30.2637 124.754 30.2637C123.914 30.2637 123.169 30.1237 122.518 29.8438C121.873 29.5638 121.329 29.1895 120.887 28.7207C120.451 28.252 120.122 27.7116 119.9 27.0996C119.686 26.4876 119.578 25.8464 119.578 25.1758ZM130.76 22.6367V20.3613H132.273V17.5H135.32V20.3613H137.518V22.6367H135.32V26.084C135.32 26.4421 135.353 26.7285 135.418 26.9434C135.483 27.1517 135.574 27.3145 135.691 27.4316C135.815 27.5423 135.955 27.6204 136.111 27.666C136.274 27.7051 136.45 27.7246 136.639 27.7246C136.827 27.7246 137.02 27.7214 137.215 27.7148C137.417 27.7018 137.592 27.6823 137.742 27.6562V30C137.514 30.0391 137.228 30.0749 136.883 30.1074C136.544 30.14 136.15 30.1562 135.701 30.1562C135.343 30.1562 134.962 30.1302 134.559 30.0781C134.155 30.026 133.784 29.8893 133.445 29.668C133.107 29.4466 132.827 29.1081 132.605 28.6523C132.384 28.1901 132.273 27.5586 132.273 26.7578V22.6367H130.76ZM144.275 30V15.9961H148.016L151.756 25.7422L155.457 15.9961H159.139V30H155.975V21.3184L152.957 30H150.555L147.439 21.3184V30H144.275ZM161.18 25.1758C161.18 24.4531 161.29 23.7826 161.512 23.1641C161.74 22.5456 162.059 22.015 162.469 21.5723C162.885 21.123 163.383 20.7682 163.963 20.5078C164.542 20.2474 165.18 20.1172 165.877 20.1172C166.183 20.1172 166.489 20.1628 166.795 20.2539C167.101 20.3385 167.384 20.4557 167.645 20.6055C167.905 20.7487 168.136 20.9212 168.338 21.123C168.54 21.3184 168.699 21.5234 168.816 21.7383V20.3613H171.873V30H168.816V28.6426C168.699 28.8704 168.54 29.082 168.338 29.2773C168.136 29.4661 167.905 29.6322 167.645 29.7754C167.384 29.9121 167.101 30.0228 166.795 30.1074C166.489 30.1986 166.183 30.2441 165.877 30.2441C165.187 30.2441 164.549 30.1139 163.963 29.8535C163.383 29.5931 162.885 29.2383 162.469 28.7891C162.059 28.3398 161.74 27.806 161.512 27.1875C161.29 26.569 161.18 25.8984 161.18 25.1758ZM164.217 25.1758C164.217 25.5078 164.272 25.8268 164.383 26.1328C164.5 26.4323 164.656 26.6927 164.852 26.9141C165.053 27.1289 165.294 27.3047 165.574 27.4414C165.854 27.5716 166.167 27.6367 166.512 27.6367C166.857 27.6367 167.169 27.5716 167.449 27.4414C167.736 27.3047 167.977 27.1289 168.172 26.9141C168.374 26.6927 168.53 26.4323 168.641 26.1328C168.758 25.8333 168.816 25.5143 168.816 25.1758C168.816 24.8438 168.758 24.5312 168.641 24.2383C168.53 23.9453 168.374 23.6849 168.172 23.457C167.977 23.2292 167.739 23.0501 167.459 22.9199C167.179 22.7897 166.863 22.7246 166.512 22.7246C166.167 22.7246 165.854 22.7897 165.574 22.9199C165.294 23.0501 165.053 23.2292 164.852 23.457C164.656 23.6849 164.5 23.9453 164.383 24.2383C164.272 24.5312 164.217 24.8438 164.217 25.1758ZM173.836 26.7773H176.834C176.834 27.2852 176.977 27.6497 177.264 27.8711C177.55 28.0924 177.918 28.2031 178.367 28.2031C178.738 28.2031 179.041 28.1348 179.275 27.998C179.516 27.8548 179.637 27.6237 179.637 27.3047C179.637 27.1159 179.585 26.9661 179.48 26.8555C179.383 26.7383 179.23 26.6309 179.021 26.5332C178.813 26.429 178.546 26.3281 178.221 26.2305C177.895 26.1328 177.505 26.0091 177.049 25.8594C176.652 25.7422 176.271 25.6152 175.906 25.4785C175.548 25.3353 175.232 25.1628 174.959 24.9609C174.686 24.7591 174.467 24.5052 174.305 24.1992C174.148 23.8932 174.07 23.5059 174.07 23.0371C174.07 22.0345 174.454 21.2956 175.223 20.8203C175.991 20.3385 177.026 20.0977 178.328 20.0977C179.018 20.0977 179.627 20.1823 180.154 20.3516C180.688 20.5143 181.124 20.7454 181.463 21.0449C181.801 21.3379 182.055 21.6829 182.225 22.0801C182.4 22.4772 182.488 22.9036 182.488 23.3594H179.471C179.471 22.9622 179.367 22.653 179.158 22.4316C178.956 22.2103 178.641 22.0996 178.211 22.0996C177.905 22.0996 177.638 22.1712 177.41 22.3145C177.182 22.4512 177.068 22.666 177.068 22.959C177.068 23.1348 177.12 23.2812 177.225 23.3984C177.335 23.5091 177.495 23.61 177.703 23.7012C177.911 23.7923 178.169 23.8867 178.475 23.9844C178.781 24.0755 179.132 24.1862 179.529 24.3164C179.959 24.4336 180.359 24.5638 180.73 24.707C181.102 24.8503 181.427 25.026 181.707 25.2344C181.993 25.4362 182.218 25.6934 182.381 26.0059C182.55 26.3118 182.635 26.696 182.635 27.1582C182.635 27.7311 182.521 28.2161 182.293 28.6133C182.065 29.0039 181.749 29.3229 181.346 29.5703C180.949 29.8177 180.486 29.9935 179.959 30.0977C179.432 30.2083 178.868 30.2637 178.27 30.2637C176.896 30.2637 175.812 29.9642 175.018 29.3652C174.23 28.7598 173.836 27.8971 173.836 26.7773ZM183.396 22.6367V20.3613H184.91V17.5H187.957V20.3613H190.154V22.6367H187.957V26.084C187.957 26.4421 187.99 26.7285 188.055 26.9434C188.12 27.1517 188.211 27.3145 188.328 27.4316C188.452 27.5423 188.592 27.6204 188.748 27.666C188.911 27.7051 189.087 27.7246 189.275 27.7246C189.464 27.7246 189.656 27.7214 189.852 27.7148C190.053 27.7018 190.229 27.6823 190.379 27.6562V30C190.151 30.0391 189.865 30.0749 189.52 30.1074C189.181 30.14 188.787 30.1562 188.338 30.1562C187.98 30.1562 187.599 30.1302 187.195 30.0781C186.792 30.026 186.421 29.8893 186.082 29.668C185.743 29.4466 185.464 29.1081 185.242 28.6523C185.021 28.1901 184.91 27.5586 184.91 26.7578V22.6367H183.396ZM191.141 25.1758C191.141 24.4661 191.248 23.8053 191.463 23.1934C191.684 22.5814 192.01 22.0475 192.439 21.5918C192.876 21.1296 193.41 20.765 194.041 20.498C194.679 20.2311 195.418 20.0977 196.258 20.0977C197.02 20.0977 197.703 20.2181 198.309 20.459C198.914 20.6999 199.432 21.0221 199.861 21.4258C200.298 21.8229 200.633 22.2884 200.867 22.8223C201.102 23.3561 201.219 23.916 201.219 24.502C201.219 24.7038 201.215 24.9186 201.209 25.1465C201.202 25.3678 201.173 25.625 201.121 25.918H194.178C194.191 26.2109 194.233 26.4876 194.305 26.748C194.383 27.0085 194.503 27.2363 194.666 27.4316C194.835 27.627 195.053 27.7799 195.32 27.8906C195.587 28.0013 195.919 28.0566 196.316 28.0566C196.85 28.0566 197.254 27.9525 197.527 27.7441C197.801 27.5293 197.99 27.2689 198.094 26.9629H201.102C201.036 27.4186 200.88 27.8451 200.633 28.2422C200.385 28.6393 200.057 28.9876 199.646 29.2871C199.243 29.5866 198.764 29.8242 198.211 30C197.658 30.1758 197.033 30.2637 196.336 30.2637C195.496 30.2637 194.751 30.14 194.1 29.8926C193.455 29.6452 192.911 29.2969 192.469 28.8477C192.033 28.3919 191.701 27.8548 191.473 27.2363C191.251 26.6113 191.141 25.9245 191.141 25.1758ZM194.178 24.1602H198.221C198.221 23.5352 198.035 23.0436 197.664 22.6855C197.299 22.321 196.824 22.1387 196.238 22.1387C195.639 22.1387 195.145 22.3145 194.754 22.666C194.37 23.0111 194.178 23.5091 194.178 24.1602ZM203.299 30V20.3613H206.355V21.9238C206.583 21.4681 206.961 21.0677 207.488 20.7227C208.016 20.3711 208.621 20.1953 209.305 20.1953C209.663 20.1953 209.969 20.2507 210.223 20.3613V23.1445C210.008 23.0924 209.826 23.0566 209.676 23.0371C209.533 23.0111 209.354 22.998 209.139 22.998C208.299 22.998 207.625 23.2454 207.117 23.7402C206.609 24.235 206.355 25.0684 206.355 26.2402V30H203.299ZM211.521 30.7422H214.578C214.604 31.2891 214.793 31.7057 215.145 31.9922C215.503 32.2786 215.936 32.4219 216.443 32.4219C217.029 32.4219 217.488 32.2786 217.82 31.9922C218.152 31.7057 218.318 31.1882 218.318 30.4395V28.457C218.051 28.9779 217.654 29.3783 217.127 29.6582C216.6 29.9382 215.971 30.0781 215.242 30.0781C214.604 30.0781 214.048 29.974 213.572 29.7656C213.097 29.5508 212.726 29.2676 212.459 28.916C212.153 28.5449 211.951 28.1315 211.854 27.6758C211.762 27.2135 211.717 26.6341 211.717 25.9375V20.3613H214.764V25.3027C214.764 25.9928 214.884 26.556 215.125 26.9922C215.372 27.4219 215.818 27.6367 216.463 27.6367C217.101 27.6367 217.57 27.4186 217.869 26.9824C218.169 26.5397 218.318 25.944 218.318 25.1953V20.3613H221.375V30.2441C221.375 31.0059 221.255 31.6634 221.014 32.2168C220.779 32.7767 220.454 33.2324 220.037 33.584C219.607 33.9421 219.103 34.2025 218.523 34.3652C217.951 34.5345 217.244 34.6191 216.404 34.6191C215.617 34.6191 214.933 34.5378 214.354 34.375C213.774 34.2188 213.27 33.9681 212.84 33.623C212.456 33.304 212.14 32.9069 211.893 32.4316C211.645 31.9564 211.521 31.3932 211.521 30.7422Z" fill="#61DAFB"/>
<path d="M83.0938 54V44.1973H84.3105V48.7363C84.5156 48.3444 84.8187 48.0368 85.2197 47.8135C85.6208 47.5902 86.056 47.4785 86.5254 47.4785C87.0085 47.4785 87.4528 47.5674 87.8584 47.7451C88.264 47.9183 88.6081 48.1598 88.8906 48.4697C89.1777 48.7796 89.401 49.1374 89.5605 49.543C89.7201 49.9486 89.7998 50.3747 89.7998 50.8213C89.7998 51.2679 89.7201 51.694 89.5605 52.0996C89.401 52.5007 89.1777 52.8561 88.8906 53.166C88.6081 53.4714 88.264 53.7129 87.8584 53.8906C87.4528 54.0684 87.0085 54.1572 86.5254 54.1572C86.0605 54.1572 85.6253 54.0456 85.2197 53.8223C84.8187 53.5944 84.5156 53.2845 84.3105 52.8926V54H83.0938ZM84.3105 50.8213C84.3105 51.1312 84.3607 51.4206 84.4609 51.6895C84.5658 51.9583 84.7116 52.1953 84.8984 52.4004C85.0853 52.6009 85.3109 52.7627 85.5752 52.8857C85.8395 53.0042 86.1357 53.0635 86.4639 53.0635C86.7829 53.0635 87.0723 53.0042 87.332 52.8857C87.5964 52.7627 87.8197 52.6009 88.002 52.4004C88.1842 52.1953 88.3255 51.9583 88.4258 51.6895C88.5306 51.4206 88.583 51.1312 88.583 50.8213C88.583 50.5114 88.5306 50.222 88.4258 49.9531C88.3255 49.6842 88.1842 49.4473 88.002 49.2422C87.8197 49.0371 87.5964 48.873 87.332 48.75C87.0723 48.627 86.7829 48.5654 86.4639 48.5654C86.1357 48.5654 85.8395 48.627 85.5752 48.75C85.3109 48.873 85.0853 49.0371 84.8984 49.2422C84.7116 49.4473 84.5658 49.6865 84.4609 49.96C84.3607 50.2288 84.3105 50.516 84.3105 50.8213ZM91.3584 54.8271H92.5957C92.6322 55.4059 92.8008 55.8366 93.1016 56.1191C93.4069 56.4062 93.8262 56.5498 94.3594 56.5498C94.6283 56.5498 94.8721 56.5179 95.0908 56.4541C95.3096 56.3949 95.4964 56.2923 95.6514 56.1465C95.8063 56.0052 95.9248 55.8115 96.0068 55.5654C96.0934 55.3239 96.1367 55.0208 96.1367 54.6562V52.8652C95.9499 53.2572 95.6673 53.5716 95.2891 53.8086C94.9108 54.041 94.4505 54.1572 93.9082 54.1572C93.4434 54.1572 93.0537 54.0866 92.7393 53.9453C92.4248 53.804 92.1696 53.6035 91.9736 53.3438C91.7959 53.1022 91.6729 52.8288 91.6045 52.5234C91.5361 52.2181 91.502 51.8285 91.502 51.3545V47.6426H92.7188V50.9785C92.7188 51.2884 92.7438 51.571 92.7939 51.8262C92.8486 52.0814 92.9375 52.3024 93.0605 52.4893C93.1882 52.6761 93.3545 52.8219 93.5596 52.9268C93.7646 53.027 94.0267 53.0771 94.3457 53.0771C94.6556 53.0771 94.9199 53.0202 95.1387 52.9062C95.362 52.7878 95.5465 52.6283 95.6924 52.4277C95.8382 52.2272 95.9476 51.9971 96.0205 51.7373C96.098 51.473 96.1367 51.195 96.1367 50.9033V47.6426H97.3535V54.6562C97.3535 55.6725 97.096 56.4131 96.5811 56.8779C96.0706 57.3473 95.321 57.582 94.332 57.582C93.4251 57.582 92.7074 57.3542 92.1787 56.8984C91.6501 56.4427 91.3766 55.7523 91.3584 54.8271ZM103.041 54V44.1973H106.486C107.001 44.1973 107.462 44.2861 107.867 44.4639C108.277 44.6416 108.628 44.8854 108.92 45.1953C109.216 45.5007 109.444 45.8561 109.604 46.2617C109.763 46.6628 109.843 47.0866 109.843 47.5332C109.843 47.9798 109.763 48.4059 109.604 48.8115C109.444 49.2171 109.216 49.5749 108.92 49.8848C108.628 50.1901 108.277 50.4316 107.867 50.6094C107.457 50.7871 106.997 50.876 106.486 50.876H104.312V54H103.041ZM104.312 49.7139H106.486C106.805 49.7139 107.092 49.6569 107.348 49.543C107.603 49.4245 107.822 49.2673 108.004 49.0713C108.186 48.8753 108.325 48.6452 108.421 48.3809C108.521 48.112 108.571 47.8294 108.571 47.5332C108.571 47.2461 108.521 46.9704 108.421 46.7061C108.325 46.4372 108.186 46.2025 108.004 46.002C107.822 45.8014 107.601 45.6419 107.341 45.5234C107.086 45.4049 106.801 45.3457 106.486 45.3457H104.312V49.7139ZM111.381 54V44.1973H112.598V48.7637C112.785 48.3717 113.069 48.0596 113.452 47.8271C113.835 47.5947 114.298 47.4785 114.84 47.4785C115.286 47.4785 115.667 47.5514 115.981 47.6973C116.3 47.8385 116.553 48.0459 116.74 48.3193C116.918 48.5609 117.043 48.832 117.116 49.1328C117.194 49.429 117.232 49.8005 117.232 50.2471V54H116.016V50.623C116.016 50.3359 115.986 50.0648 115.927 49.8096C115.872 49.5498 115.781 49.3288 115.653 49.1465C115.53 48.9642 115.366 48.8206 115.161 48.7158C114.956 48.6064 114.703 48.5518 114.402 48.5518C114.092 48.5518 113.826 48.6133 113.603 48.7363C113.379 48.8594 113.192 49.0212 113.042 49.2217C112.896 49.4222 112.785 49.6523 112.707 49.9121C112.634 50.1719 112.598 50.443 112.598 50.7256V54H111.381ZM118.928 45.2363C118.928 44.9674 119.021 44.735 119.208 44.5391C119.395 44.3431 119.625 44.2451 119.898 44.2451C120.167 44.2451 120.4 44.3431 120.596 44.5391C120.792 44.735 120.89 44.9674 120.89 45.2363C120.89 45.5052 120.792 45.7331 120.596 45.9199C120.4 46.1068 120.167 46.2002 119.898 46.2002C119.63 46.2002 119.399 46.1068 119.208 45.9199C119.021 45.7331 118.928 45.5052 118.928 45.2363ZM119.297 54V47.6426H120.514V54H119.297ZM122.701 54V44.1973H123.918V54H122.701ZM125.736 45.2363C125.736 44.9674 125.83 44.735 126.017 44.5391C126.203 44.3431 126.434 44.2451 126.707 44.2451C126.976 44.2451 127.208 44.3431 127.404 44.5391C127.6 44.735 127.698 44.9674 127.698 45.2363C127.698 45.5052 127.6 45.7331 127.404 45.9199C127.208 46.1068 126.976 46.2002 126.707 46.2002C126.438 46.2002 126.208 46.1068 126.017 45.9199C125.83 45.7331 125.736 45.5052 125.736 45.2363ZM126.105 54V47.6426H127.322V54H126.105ZM129.51 57.4453V47.6426H130.727V48.7363C130.932 48.3444 131.235 48.0368 131.636 47.8135C132.037 47.5902 132.472 47.4785 132.941 47.4785C133.424 47.4785 133.869 47.5674 134.274 47.7451C134.68 47.9183 135.024 48.1598 135.307 48.4697C135.594 48.7796 135.817 49.1374 135.977 49.543C136.136 49.9486 136.216 50.3747 136.216 50.8213C136.216 51.2679 136.136 51.694 135.977 52.0996C135.817 52.5007 135.594 52.8561 135.307 53.166C135.024 53.4714 134.68 53.7129 134.274 53.8906C133.869 54.0684 133.424 54.1572 132.941 54.1572C132.477 54.1572 132.041 54.0456 131.636 53.8223C131.235 53.5944 130.932 53.2845 130.727 52.8926V57.4453H129.51ZM130.727 50.8213C130.727 51.1312 130.777 51.4206 130.877 51.6895C130.982 51.9583 131.128 52.1953 131.314 52.4004C131.501 52.6009 131.727 52.7627 131.991 52.8857C132.26 53.0042 132.556 53.0635 132.88 53.0635C133.199 53.0635 133.488 53.0042 133.748 52.8857C134.012 52.7627 134.236 52.6009 134.418 52.4004C134.6 52.1953 134.742 51.9583 134.842 51.6895C134.947 51.4206 134.999 51.1312 134.999 50.8213C134.999 50.5114 134.947 50.222 134.842 49.9531C134.742 49.6842 134.6 49.4473 134.418 49.2422C134.236 49.0371 134.012 48.873 133.748 48.75C133.488 48.627 133.199 48.5654 132.88 48.5654C132.552 48.5654 132.256 48.627 131.991 48.75C131.727 48.873 131.501 49.0371 131.314 49.2422C131.128 49.4473 130.982 49.6865 130.877 49.96C130.777 50.2288 130.727 50.516 130.727 50.8213ZM140.912 49.0986C140.912 48.4378 141.028 47.7998 141.261 47.1846C141.493 46.5648 141.826 46.0179 142.259 45.5439C142.696 45.07 143.227 44.6917 143.852 44.4092C144.476 44.1221 145.18 43.9785 145.964 43.9785C146.748 43.9785 147.452 44.1221 148.076 44.4092C148.705 44.6917 149.236 45.07 149.669 45.5439C150.102 46.0179 150.435 46.5648 150.667 47.1846C150.904 47.7998 151.022 48.4378 151.022 49.0986C151.022 49.7594 150.904 50.3997 150.667 51.0195C150.435 51.6348 150.102 52.1816 149.669 52.6602C149.236 53.1341 148.705 53.5146 148.076 53.8018C147.452 54.0843 146.748 54.2256 145.964 54.2256C145.18 54.2256 144.476 54.0843 143.852 53.8018C143.227 53.5146 142.696 53.1341 142.259 52.6602C141.826 52.1816 141.493 51.6348 141.261 51.0195C141.028 50.4043 140.912 49.764 140.912 49.0986ZM142.245 49.0986C142.245 49.6136 142.329 50.1104 142.498 50.5889C142.671 51.0628 142.92 51.4844 143.243 51.8535C143.567 52.2227 143.956 52.5189 144.412 52.7422C144.868 52.9655 145.385 53.0771 145.964 53.0771C146.534 53.0771 147.049 52.9655 147.509 52.7422C147.974 52.5189 148.363 52.2227 148.678 51.8535C148.997 51.4844 149.243 51.0628 149.416 50.5889C149.589 50.1104 149.676 49.6136 149.676 49.0986C149.676 48.5837 149.589 48.0869 149.416 47.6084C149.243 47.1299 148.997 46.7061 148.678 46.3369C148.363 45.9678 147.974 45.6738 147.509 45.4551C147.049 45.2363 146.534 45.127 145.964 45.127C145.385 45.127 144.868 45.2363 144.412 45.4551C143.956 45.6738 143.567 45.9678 143.243 46.3369C142.92 46.7061 142.671 47.1322 142.498 47.6152C142.329 48.0938 142.245 48.5882 142.245 49.0986ZM152.67 54V44.1973H153.887V48.7363C154.092 48.3444 154.395 48.0368 154.796 47.8135C155.197 47.5902 155.632 47.4785 156.102 47.4785C156.585 47.4785 157.029 47.5674 157.435 47.7451C157.84 47.9183 158.184 48.1598 158.467 48.4697C158.754 48.7796 158.977 49.1374 159.137 49.543C159.296 49.9486 159.376 50.3747 159.376 50.8213C159.376 51.2679 159.296 51.694 159.137 52.0996C158.977 52.5007 158.754 52.8561 158.467 53.166C158.184 53.4714 157.84 53.7129 157.435 53.8906C157.029 54.0684 156.585 54.1572 156.102 54.1572C155.637 54.1572 155.201 54.0456 154.796 53.8223C154.395 53.5944 154.092 53.2845 153.887 52.8926V54H152.67ZM153.887 50.8213C153.887 51.1312 153.937 51.4206 154.037 51.6895C154.142 51.9583 154.288 52.1953 154.475 52.4004C154.661 52.6009 154.887 52.7627 155.151 52.8857C155.416 53.0042 155.712 53.0635 156.04 53.0635C156.359 53.0635 156.648 53.0042 156.908 52.8857C157.173 52.7627 157.396 52.6009 157.578 52.4004C157.76 52.1953 157.902 51.9583 158.002 51.6895C158.107 51.4206 158.159 51.1312 158.159 50.8213C158.159 50.5114 158.107 50.222 158.002 49.9531C157.902 49.6842 157.76 49.4473 157.578 49.2422C157.396 49.0371 157.173 48.873 156.908 48.75C156.648 48.627 156.359 48.5654 156.04 48.5654C155.712 48.5654 155.416 48.627 155.151 48.75C154.887 48.873 154.661 49.0371 154.475 49.2422C154.288 49.4473 154.142 49.6865 154.037 49.96C153.937 50.2288 153.887 50.516 153.887 50.8213ZM160.531 50.8213C160.531 50.3747 160.611 49.9486 160.771 49.543C160.93 49.1374 161.153 48.7796 161.44 48.4697C161.732 48.1598 162.083 47.9183 162.493 47.7451C162.903 47.5674 163.359 47.4785 163.86 47.4785C164.375 47.4785 164.838 47.5674 165.248 47.7451C165.658 47.9183 166.009 48.1598 166.301 48.4697C166.597 48.7796 166.825 49.1374 166.984 49.543C167.144 49.9486 167.224 50.3747 167.224 50.8213C167.224 51.2679 167.144 51.694 166.984 52.0996C166.825 52.5007 166.597 52.8561 166.301 53.166C166.009 53.4714 165.658 53.7129 165.248 53.8906C164.838 54.0684 164.375 54.1572 163.86 54.1572C163.354 54.1572 162.896 54.0684 162.486 53.8906C162.081 53.7129 161.732 53.4714 161.44 53.166C161.153 52.8561 160.93 52.5007 160.771 52.0996C160.611 51.694 160.531 51.2679 160.531 50.8213ZM161.734 50.8213C161.734 51.1312 161.785 51.4206 161.885 51.6895C161.99 51.9583 162.133 52.1953 162.315 52.4004C162.498 52.6009 162.719 52.7627 162.979 52.8857C163.238 53.0042 163.532 53.0635 163.86 53.0635C164.188 53.0635 164.485 53.0042 164.749 52.8857C165.018 52.7627 165.246 52.6009 165.433 52.4004C165.619 52.1953 165.763 51.9583 165.863 51.6895C165.968 51.4206 166.021 51.1312 166.021 50.8213C166.021 50.5114 165.968 50.222 165.863 49.9531C165.763 49.6842 165.619 49.4473 165.433 49.2422C165.246 49.0371 165.018 48.873 164.749 48.75C164.485 48.627 164.188 48.5654 163.86 48.5654C163.532 48.5654 163.238 48.627 162.979 48.75C162.719 48.873 162.498 49.0371 162.315 49.2422C162.133 49.4473 161.99 49.6865 161.885 49.96C161.785 50.2288 161.734 50.516 161.734 50.8213ZM168.352 51.8604H169.541C169.541 52.3434 169.682 52.6852 169.965 52.8857C170.252 53.0863 170.61 53.1865 171.038 53.1865C171.43 53.1865 171.74 53.1159 171.968 52.9746C172.2 52.8288 172.316 52.5964 172.316 52.2773C172.316 52.0996 172.269 51.9583 172.173 51.8535C172.082 51.7441 171.95 51.6484 171.776 51.5664C171.603 51.4798 171.389 51.4023 171.134 51.334C170.883 51.2611 170.601 51.1699 170.286 51.0605C170.045 50.9876 169.817 50.9102 169.603 50.8281C169.393 50.7415 169.211 50.6322 169.056 50.5C168.905 50.3678 168.785 50.2083 168.693 50.0215C168.607 49.8346 168.563 49.5977 168.563 49.3105C168.563 49.0098 168.623 48.7454 168.741 48.5176C168.864 48.2897 169.033 48.0983 169.247 47.9434C169.461 47.7884 169.712 47.6722 169.999 47.5947C170.291 47.5173 170.601 47.4785 170.929 47.4785C171.275 47.4785 171.596 47.5309 171.893 47.6357C172.193 47.736 172.453 47.8818 172.672 48.0732C172.891 48.2646 173.062 48.4902 173.185 48.75C173.312 49.0098 173.376 49.2992 173.376 49.6182H172.2C172.2 49.2445 172.091 48.9574 171.872 48.7568C171.653 48.5563 171.334 48.4561 170.915 48.4561C170.578 48.4561 170.298 48.5312 170.074 48.6816C169.851 48.832 169.739 49.0508 169.739 49.3379C169.739 49.4974 169.778 49.6296 169.855 49.7344C169.933 49.8346 170.051 49.9235 170.211 50.001C170.37 50.0739 170.562 50.1468 170.785 50.2197C171.008 50.2881 171.271 50.3678 171.571 50.459C171.813 50.5319 172.048 50.6117 172.275 50.6982C172.508 50.7803 172.711 50.8874 172.884 51.0195C173.062 51.1471 173.203 51.3089 173.308 51.5049C173.417 51.7008 173.472 51.9492 173.472 52.25C173.472 52.569 173.408 52.847 173.28 53.084C173.157 53.321 172.984 53.5192 172.761 53.6787C172.537 53.8382 172.273 53.9567 171.968 54.0342C171.667 54.1162 171.339 54.1572 170.983 54.1572C170.628 54.1572 170.291 54.1094 169.972 54.0137C169.657 53.9225 169.379 53.7812 169.138 53.5898C168.901 53.3984 168.709 53.1592 168.563 52.8721C168.422 52.5804 168.352 52.2432 168.352 51.8604ZM174.846 45.2363C174.846 44.9674 174.939 44.735 175.126 44.5391C175.313 44.3431 175.543 44.2451 175.816 44.2451C176.085 44.2451 176.318 44.3431 176.514 44.5391C176.71 44.735 176.808 44.9674 176.808 45.2363C176.808 45.5052 176.71 45.7331 176.514 45.9199C176.318 46.1068 176.085 46.2002 175.816 46.2002C175.548 46.2002 175.317 46.1068 175.126 45.9199C174.939 45.7331 174.846 45.5052 174.846 45.2363ZM175.215 54V47.6426H176.432V54H175.215Z" fill="white"/>
<g filter="url(#filter0_d)">
<path d="M71.5074 33.5114C71.5074 28.9731 65.8241 24.6721 57.1105 22.005C59.1214 13.1239 58.2277 6.05812 54.2898 3.79595C53.3821 3.26532 52.3209 3.01396 51.1619 3.01396V6.12794C51.8042 6.12794 52.3209 6.25361 52.7538 6.491C54.6529 7.5802 55.4768 11.7275 54.8344 17.0618C54.6808 18.3744 54.4294 19.7568 54.1222 21.1672C51.3853 20.4969 48.397 19.9802 45.2551 19.6451C43.37 17.0618 41.415 14.7158 39.4461 12.6631C43.9983 8.432 48.2713 6.11397 51.1758 6.11397V3C47.3357 3 42.3087 5.73695 37.2258 10.4847C32.1429 5.76488 27.1158 3.05586 23.2757 3.05586V6.16983C26.1663 6.16983 30.4532 8.47389 35.0055 12.6771C33.0506 14.7298 31.0956 17.0618 29.2384 19.6451C26.0825 19.9802 23.0942 20.4969 20.3573 21.1811C20.0361 19.7847 19.7987 18.4302 19.6311 17.1316C18.9748 11.7973 19.7847 7.65002 21.6699 6.54686C22.0888 6.29551 22.6334 6.18379 23.2757 6.18379V3.06982C22.1028 3.06982 21.0415 3.32117 20.1199 3.8518C16.196 6.11397 15.3163 13.1658 17.341 22.019C8.65542 24.7001 3 28.987 3 33.5114C3 38.0497 8.68335 42.3506 17.3969 45.0177C15.3861 53.8988 16.2798 60.9646 20.2176 63.2268C21.1253 63.7574 22.1866 64.0088 23.3595 64.0088C27.1996 64.0088 32.2267 61.2718 37.3096 56.5241C42.3925 61.2439 47.4195 63.9529 51.2596 63.9529C52.4326 63.9529 53.4939 63.7016 54.4155 63.1709C58.3394 60.9088 59.2191 53.8569 57.1943 45.0037C65.852 42.3366 71.5074 38.0357 71.5074 33.5114ZM53.3263 24.1974C52.8096 25.9987 52.1673 27.8559 51.4411 29.7132C50.8686 28.596 50.2682 27.4789 49.6119 26.3618C48.9695 25.2447 48.2853 24.1555 47.6011 23.0942C49.5839 23.3875 51.497 23.7505 53.3263 24.1974ZM46.9308 39.069C45.8416 40.9542 44.7245 42.7416 43.5655 44.4033C41.4848 44.5848 39.3762 44.6826 37.2537 44.6826C35.1452 44.6826 33.0366 44.5848 30.9699 44.4173C29.8109 42.7555 28.6798 40.9821 27.5906 39.1109C26.5294 37.2816 25.5658 35.4244 24.6861 33.5533C25.5519 31.6821 26.5294 29.8109 27.5767 27.9816C28.6659 26.0965 29.783 24.3091 30.942 22.6474C33.0226 22.4658 35.1312 22.3681 37.2537 22.3681C39.3623 22.3681 41.4708 22.4658 43.5375 22.6334C44.6965 24.2951 45.8276 26.0685 46.9168 27.9397C47.9781 29.769 48.9416 31.6262 49.8213 33.4974C48.9416 35.3686 47.9781 37.2398 46.9308 39.069ZM51.4411 37.2537C52.1952 39.1249 52.8376 40.9961 53.3682 42.8114C51.5389 43.2582 49.6119 43.6353 47.615 43.9285C48.2993 42.8533 48.9835 41.7501 49.6258 40.619C50.2682 39.5019 50.8686 38.3708 51.4411 37.2537ZM37.2816 52.1533C35.983 50.8128 34.6843 49.3186 33.3997 47.6848C34.6564 47.7407 35.9411 47.7826 37.2398 47.7826C38.5524 47.7826 39.851 47.7547 41.1217 47.6848C39.865 49.3186 38.5663 50.8128 37.2816 52.1533ZM26.8924 43.9285C24.9095 43.6353 22.9965 43.2722 21.1672 42.8254C21.6838 41.024 22.3262 39.1668 23.0523 37.3096C23.6248 38.4267 24.2253 39.5438 24.8816 40.6609C25.5379 41.7781 26.2082 42.8673 26.8924 43.9285ZM37.2118 14.8694C38.5105 16.21 39.8091 17.7041 41.0938 19.3379C39.8371 19.282 38.5524 19.2401 37.2537 19.2401C35.9411 19.2401 34.6425 19.2681 33.3717 19.3379C34.6285 17.7041 35.9271 16.21 37.2118 14.8694ZM26.8785 23.0942C26.1942 24.1694 25.51 25.2726 24.8676 26.4037C24.2253 27.5208 23.6248 28.6379 23.0523 29.755C22.2983 27.8839 21.6559 26.0127 21.1253 24.1974C22.9546 23.7645 24.8816 23.3875 26.8785 23.0942ZM14.241 40.5772C9.29777 38.4686 6.10001 35.7037 6.10001 33.5114C6.10001 31.319 9.29777 28.5402 14.241 26.4456C15.4419 25.9289 16.7546 25.4681 18.1091 25.0352C18.905 27.7722 19.9523 30.6208 21.251 33.5393C19.9663 36.4438 18.9329 39.2785 18.151 42.0015C16.7685 41.5686 15.4559 41.0938 14.241 40.5772ZM21.7537 60.5317C19.8546 59.4425 19.0307 55.2952 19.673 49.961C19.8266 48.6483 20.078 47.2659 20.3852 45.8555C23.1221 46.5258 26.1104 47.0425 29.2523 47.3776C31.1375 49.961 33.0924 52.3069 35.0614 54.3596C30.5091 58.5907 26.2361 60.9088 23.3316 60.9088C22.7032 60.8948 22.1726 60.7691 21.7537 60.5317ZM54.8763 49.8911C55.5326 55.2254 54.7227 59.3727 52.8375 60.4759C52.4186 60.7272 51.874 60.8389 51.2317 60.8389C48.3411 60.8389 44.0542 58.5349 39.5019 54.3317C41.4569 52.279 43.4118 49.947 45.2691 47.3637C48.4249 47.0285 51.4132 46.5119 54.1502 45.8276C54.4713 47.238 54.7227 48.5925 54.8763 49.8911ZM60.2524 40.5772C59.0515 41.0938 57.7389 41.5546 56.3844 41.9875C55.5885 39.2506 54.5412 36.4019 53.2425 33.4834C54.5272 30.5789 55.5605 27.7442 56.3425 25.0212C57.725 25.4541 59.0376 25.9289 60.2664 26.4456C65.2097 28.5541 68.4074 31.319 68.4074 33.5114C68.3935 35.7037 65.1957 38.4826 60.2524 40.5772Z" fill="url(#paint0_linear)"/>
</g>
<g filter="url(#filter1_d)">
<path d="M37.2397 39.8929C40.7641 39.8929 43.6213 37.0358 43.6213 33.5114C43.6213 29.9869 40.7641 27.1298 37.2397 27.1298C33.7153 27.1298 30.8582 29.9869 30.8582 33.5114C30.8582 37.0358 33.7153 39.8929 37.2397 39.8929Z" fill="#61DAFB"/>
</g>
<defs>
<filter id="filter0_d" x="0" y="0" width="76.5074" height="69.0088" filterUnits="userSpaceOnUse" color-interpolation-filters="sRGB">
<feFlood flood-opacity="0" result="BackgroundImageFix"/>
<feColorMatrix in="SourceAlpha" type="matrix" values="0 0 0 0 0 0 0 0 0 0 0 0 0 0 0 0 0 0 127 0"/>
<feOffset dx="1" dy="1"/>
<feGaussianBlur stdDeviation="2"/>
<feColorMatrix type="matrix" values="0 0 0 0 0 0 0 0 0 0 0 0 0 0 0 0 0 0 0.25 0"/>
<feBlend mode="normal" in2="BackgroundImageFix" result="effect1_dropShadow"/>
<feBlend mode="normal" in="SourceGraphic" in2="effect1_dropShadow" result="shape"/>
</filter>
<filter id="filter1_d" x="27.8582" y="24.1298" width="20.7631" height="20.7631" filterUnits="userSpaceOnUse" color-interpolation-filters="sRGB">
<feFlood flood-opacity="0" result="BackgroundImageFix"/>
<feColorMatrix in="SourceAlpha" type="matrix" values="0 0 0 0 0 0 0 0 0 0 0 0 0 0 0 0 0 0 127 0"/>
<feOffset dx="1" dy="1"/>
<feGaussianBlur stdDeviation="2"/>
<feColorMatrix type="matrix" values="0 0 0 0 0 0 0 0 0 0 0 0 0 0 0 0 0 0 0.25 0"/>
<feBlend mode="normal" in2="BackgroundImageFix" result="effect1_dropShadow"/>
<feBlend mode="normal" in="SourceGraphic" in2="effect1_dropShadow" result="shape"/>
</filter>
<linearGradient id="paint0_linear" x1="3" y1="32.9692" x2="71.5074" y2="32.9692" gradientUnits="userSpaceOnUse">
<stop stop-color="#61DAFB"/>
<stop offset="1" stop-color="#B06AB3"/>
</linearGradient>
</defs>
</svg>
