<svg width="512" height="512" viewBox="0 0 512 512" fill="none" xmlns="http://www.w3.org/2000/svg">
<g clip-path="url(#clip0)">
<g filter="url(#filter0_d)">
<path d="M512 256C512 397.387 397.387 512 256 512C114.613 512 0 397.387 0 256C0 114.613 114.613 0 256 0C397.387 0 512 114.613 512 256Z" fill="url(#paint0_linear)"/>
</g>
<path d="M208.247 245.351H138.104C117.645 245.351 101 228.706 101 208.247V138.104C101 117.645 117.645 101 138.104 101H208.247C228.706 101 245.351 117.645 245.351 138.104V208.247C245.351 228.706 228.706 245.351 208.247 245.351ZM138.104 128.426C132.768 128.426 128.426 132.768 128.426 138.104V208.247C128.426 213.582 132.768 217.925 138.104 217.925H208.247C213.582 217.925 217.925 213.582 217.925 208.247V138.104C217.925 132.768 213.582 128.426 208.247 128.426H138.104Z" fill="white"/>
<path d="M372.425 245.351H303.224C282.505 245.351 265.649 228.495 265.649 207.776V138.575C265.649 117.856 282.505 101 303.224 101H372.425C393.144 101 410 117.856 410 138.575V207.776C410 228.495 393.144 245.351 372.425 245.351ZM303.224 128.426C297.628 128.426 293.075 132.979 293.075 138.575V207.776C293.075 213.372 297.628 217.925 303.224 217.925H372.425C378.021 217.925 382.574 213.372 382.574 207.776V138.575C382.574 132.979 378.021 128.426 372.425 128.426H303.224Z" fill="white"/>
<path d="M208.247 410H138.104C117.645 410 101 393.355 101 372.896V302.753C101 282.294 117.645 265.649 138.104 265.649H208.247C228.706 265.649 245.351 282.294 245.351 302.753V372.896C245.351 393.355 228.706 410 208.247 410ZM138.104 293.075C132.768 293.075 128.426 297.418 128.426 302.753V372.896C128.426 378.235 132.768 382.574 138.104 382.574H208.247C213.582 382.574 217.925 378.235 217.925 372.896V302.753C217.925 297.418 213.582 293.075 208.247 293.075H138.104Z" fill="white"/>
<path d="M372.425 410H303.224C282.505 410 265.649 393.144 265.649 372.425V303.224C265.649 282.505 282.505 265.649 303.224 265.649H372.425C393.144 265.649 410 282.505 410 303.224V372.425C410 393.144 393.144 410 372.425 410ZM303.224 293.075C297.628 293.075 293.075 297.628 293.075 303.224V372.425C293.075 378.021 297.628 382.574 303.224 382.574H372.425C378.021 382.574 382.574 378.021 382.574 372.425V303.224C382.574 297.628 378.021 293.075 372.425 293.075H303.224Z" fill="white"/>
</g>
<defs>
<filter id="filter0_d" x="-3" y="-3" width="520" height="520" filterUnits="userSpaceOnUse" color-interpolation-filters="sRGB">
<feFlood flood-opacity="0" result="BackgroundImageFix"/>
<feColorMatrix in="SourceAlpha" type="matrix" values="0 0 0 0 0 0 0 0 0 0 0 0 0 0 0 0 0 0 127 0"/>
<feOffset dx="1" dy="1"/>
<feGaussianBlur stdDeviation="2"/>
<feColorMatrix type="matrix" values="0 0 0 0 0 0 0 0 0 0 0 0 0 0 0 0 0 0 0.25 0"/>
<feBlend mode="normal" in2="BackgroundImageFix" result="effect1_dropShadow"/>
<feBlend mode="normal" in="SourceGraphic" in2="effect1_dropShadow" result="shape"/>
</filter>
<linearGradient id="paint0_linear" x1="4.41356e-07" y1="251.509" x2="512" y2="251.509" gradientUnits="userSpaceOnUse">
<stop stop-color="#61DAFB"/>
<stop offset="1" stop-color="#B06AB3"/>
</linearGradient>
<clipPath id="clip0">
<rect width="512" height="512" fill="white"/>
</clipPath>
</defs>
</svg>
